<svg xmlns="http://www.w3.org/2000/svg" viewBox="0 0 850 560" role="img" aria-labelledby="title desc"><title id="title">js engine version history</title><desc id="desc">Median elapsed time relative to the oldest tag, log scale. Lower is faster. Lines connect identical output only.</desc><style>text{font:13px system-ui;fill:#172033}.bg{fill:#fff}.grid{stroke:#cbd5e1}@media(prefers-color-scheme:dark){text{fill:#edf2f7}.bg{fill:#152033}.grid{stroke:#475569}}</style><rect class="bg" width="850" height="560"/><text x="35" y="28" font-weight="bold">js · n=1024 · time / oldest tag (lower is faster)</text><text x="35" y="49">Each case starts at its own 1× baseline. Equal ratios do not mean equal milliseconds.</text><line class="grid" x1="85" x2="765" y1="310.0" y2="310.0"/><text x="25" y="315.0">0.34×</text><line class="grid" x1="85" x2="765" y1="250.0" y2="250.0"/><text x="25" y="255.0">0.77×</text><line class="grid" x1="85" x2="765" y1="190.0" y2="190.0"/><text x="25" y="195.0">1.7×</text><line class="grid" x1="85" x2="765" y1="130.00000000000003" y2="130.00000000000003"/><text x="25" y="135.00000000000003">3.9×</text><line class="grid" x1="85" x2="765" y1="70.0" y2="70.0"/><text x="25" y="75.0">8.7×</text><text x="85.0" y="337" text-anchor="middle">0.1.6</text><text x="255.0" y="337" text-anchor="middle">0.1.7</text><text x="425.0" y="337" text-anchor="middle">0.1.8</text><text x="595.0" y="337" text-anchor="middle">0.1.9</text><text x="765.0" y="337" text-anchor="middle">dev-main</text><line x1="85.0" x2="85.0" y1="246.08696254636962" y2="179.22305802054106" stroke="#2563eb" stroke-width="3" opacity=".3"/><circle cx="85.0" cy="230.1621370200989" r="5" fill="#2563eb" stroke="#2563eb" stroke-width="2"><title>quoted_fences 0.1.6: 3.366 ms</title></circle><line x1="85.0" y1="230.1621370200989" x2="255.0" y2="232.6108830844098" stroke="#2563eb" stroke-width="2"/><line x1="255.0" x2="255.0" y1="246.39716302793406" y2="143.24403827858913" stroke="#2563eb" stroke-width="3" opacity=".3"/><circle cx="255.0" cy="232.6108830844098" r="5" fill="#2563eb" stroke="#2563eb" stroke-width="2"><title>quoted_fences 0.1.7: 3.257 ms</title></circle><line x1="255.0" y1="232.6108830844098" x2="425.0" y2="249.7882913904763" stroke="#2563eb" stroke-width="2"/><line x1="425.0" x2="425.0" y1="267.1829840650455" y2="214.22221990990184" stroke="#2563eb" stroke-width="3" opacity=".3"/><circle cx="425.0" cy="249.7882913904763" r="5" fill="#2563eb" stroke="#2563eb" stroke-width="2"><title>quoted_fences 0.1.8: 2.584 ms</title></circle><line x1="425.0" y1="249.7882913904763" x2="595.0" y2="255.23400159614602" stroke="#2563eb" stroke-width="2"/><line x1="595.0" x2="595.0" y1="268.90059909210606" y2="189.16526293029096" stroke="#2563eb" stroke-width="3" opacity=".3"/><circle cx="595.0" cy="255.23400159614602" r="5" fill="#2563eb" stroke="#2563eb" stroke-width="2"><title>quoted_fences 0.1.9: 2.401 ms</title></circle><line x1="595.0" y1="255.23400159614602" x2="765.0" y2="268.5258653574616" stroke="#2563eb" stroke-width="2"/><line x1="765.0" x2="765.0" y1="276.2476095940679" y2="203.89762188348374" stroke="#2563eb" stroke-width="3" opacity=".3"/><circle cx="765.0" cy="268.5258653574616" r="5" fill="#2563eb" stroke="#2563eb" stroke-width="2"><title>quoted_fences dev-main: 2.007 ms</title></circle><line x1="35" x2="55" y1="380" y2="380" stroke="#2563eb" stroke-width="3"/><text x="63" y="384">quoted_fences (3.366 ms)</text><line x1="85.0" x2="85.0" y1="248.80490870209528" y2="182.54607430706793" stroke="#c026d3" stroke-width="3" opacity=".3"/><circle cx="85.0" cy="230.1621370200989" r="5" fill="#c026d3" stroke="#c026d3" stroke-width="2"><title>verse_definitions 0.1.6: 5.499 ms</title></circle><line x1="85.0" y1="230.1621370200989" x2="255.0" y2="236.69377787972397" stroke="#c026d3" stroke-width="2"/><line x1="255.0" x2="255.0" y1="254.5348690977424" y2="200.07483367893497" stroke="#c026d3" stroke-width="3" opacity=".3"/><circle cx="255.0" cy="236.69377787972397" r="5" fill="#c026d3" stroke="#c026d3" stroke-width="2"><title>verse_definitions 0.1.7: 5.036 ms</title></circle><line x1="255.0" y1="236.69377787972397" x2="425.0" y2="212.11217832730236" stroke="#c026d3" stroke-width="2"/><line x1="425.0" x2="425.0" y1="234.6072549414938" y2="171.02347817685995" stroke="#c026d3" stroke-width="3" opacity=".3"/><circle cx="425.0" cy="212.11217832730236" r="5" fill="#c026d3" stroke="#c026d3" stroke-width="2"><title>verse_definitions 0.1.8: 7.014 ms</title></circle><line x1="425.0" y1="212.11217832730236" x2="595.0" y2="219.67922144498573" stroke="#c026d3" stroke-width="2"/><line x1="595.0" x2="595.0" y1="237.00910121126003" y2="175.84791113007947" stroke="#c026d3" stroke-width="3" opacity=".3"/><circle cx="595.0" cy="219.67922144498573" r="5" fill="#c026d3" stroke="#c026d3" stroke-width="2"><title>verse_definitions 0.1.9: 6.334 ms</title></circle><line x1="595.0" y1="219.67922144498573" x2="765.0" y2="229.84429003845037" stroke="#c026d3" stroke-width="2"/><line x1="765.0" x2="765.0" y1="238.19414419610888" y2="193.27528345696783" stroke="#c026d3" stroke-width="3" opacity=".3"/><circle cx="765.0" cy="229.84429003845037" r="5" fill="#c026d3" stroke="#c026d3" stroke-width="2"><title>verse_definitions dev-main: 5.523 ms</title></circle><line x1="445" x2="465" y1="380" y2="380" stroke="#c026d3" stroke-width="3"/><text x="473" y="384">verse_definitions (5.499 ms)</text><line x1="85.0" x2="85.0" y1="245.70688939034642" y2="189.18586744162383" stroke="#059669" stroke-width="3" opacity=".3"/><circle cx="85.0" cy="230.1621370200989" r="5" fill="#059669" stroke="#059669" stroke-width="2"><title>verse_equivalent 0.1.6: 5.737 ms</title></circle><line x1="85.0" y1="230.1621370200989" x2="255.0" y2="231.92479261700078" stroke="#059669" stroke-width="2"/><line x1="255.0" x2="255.0" y1="244.54657020583525" y2="204.79013164493065" stroke="#059669" stroke-width="3" opacity=".3"/><circle cx="255.0" cy="231.92479261700078" r="5" fill="#059669" stroke="#059669" stroke-width="2"><title>verse_equivalent 0.1.7: 5.603 ms</title></circle><line x1="255.0" y1="231.92479261700078" x2="425.0" y2="197.0763634381327" stroke="#059669" stroke-width="2"/><line x1="425.0" x2="425.0" y1="229.1684439386217" y2="159.2013669029379" stroke="#059669" stroke-width="3" opacity=".3"/><circle cx="425.0" cy="197.0763634381327" r="5" fill="#059669" stroke="#059669" stroke-width="2"><title>verse_equivalent 0.1.8: 8.962 ms</title></circle><line x1="425.0" y1="197.0763634381327" x2="595.0" y2="206.96609393209587" stroke="#059669" stroke-width="2"/><line x1="595.0" x2="595.0" y1="231.3898411160736" y2="165.219946883869" stroke="#059669" stroke-width="3" opacity=".3"/><circle cx="595.0" cy="206.96609393209587" r="5" fill="#059669" stroke="#059669" stroke-width="2"><title>verse_equivalent 0.1.9: 7.843 ms</title></circle><line x1="595.0" y1="206.96609393209587" x2="765.0" y2="215.32427423388043" stroke="#059669" stroke-width="2"/><line x1="765.0" x2="765.0" y1="236.4703630771524" y2="83.66723091291729" stroke="#059669" stroke-width="3" opacity=".3"/><circle cx="765.0" cy="215.32427423388043" r="5" fill="#059669" stroke="#059669" stroke-width="2"><title>verse_equivalent dev-main: 7.008 ms</title></circle><line x1="35" x2="55" y1="406" y2="406" stroke="#059669" stroke-width="3"/><text x="63" y="410">verse_equivalent (5.737 ms)</text><line x1="85.0" x2="85.0" y1="248.20237298219257" y2="148.7474788378688" stroke="#d97706" stroke-width="3" opacity=".3"/><circle cx="85.0" cy="230.1621370200989" r="5" fill="#d97706" stroke="#d97706" stroke-width="2"><title>paragraphs 0.1.6: 1.545 ms</title></circle><line x1="85.0" y1="230.1621370200989" x2="255.0" y2="234.4091255270275" stroke="#d97706" stroke-width="2"/><line x1="255.0" x2="255.0" y1="247.54546807413163" y2="168.4760347725871" stroke="#d97706" stroke-width="3" opacity=".3"/><circle cx="255.0" cy="234.4091255270275" r="5" fill="#d97706" stroke="#d97706" stroke-width="2"><title>paragraphs 0.1.7: 1.459 ms</title></circle><line x1="255.0" y1="234.4091255270275" x2="425.0" y2="283.6235527325406" stroke="#d97706" stroke-width="2"/><line x1="425.0" x2="425.0" y1="296.3327690870827" y2="230.196058705577" stroke="#d97706" stroke-width="3" opacity=".3"/><circle cx="425.0" cy="283.6235527325406" r="5" fill="#d97706" stroke="#d97706" stroke-width="2"><title>paragraphs 0.1.8: 0.751 ms</title></circle><line x1="425.0" y1="283.6235527325406" x2="595.0" y2="291.7534983352927" stroke="#d97706" stroke-width="2"/><line x1="595.0" x2="595.0" y1="296.1803418636194" y2="220.3585662708182" stroke="#d97706" stroke-width="3" opacity=".3"/><circle cx="595.0" cy="291.7534983352927" r="5" fill="#d97706" stroke="#d97706" stroke-width="2"><title>paragraphs 0.1.9: 0.673 ms</title></circle><line x1="595.0" y1="291.7534983352927" x2="765.0" y2="286.1983977170726" stroke="#d97706" stroke-width="2"/><line x1="765.0" x2="765.0" y1="295.5322292029381" y2="217.61451073772062" stroke="#d97706" stroke-width="3" opacity=".3"/><circle cx="765.0" cy="286.1983977170726" r="5" fill="#d97706" stroke="#d97706" stroke-width="2"><title>paragraphs dev-main: 0.726 ms</title></circle><line x1="445" x2="465" y1="406" y2="406" stroke="#d97706" stroke-width="3"/><text x="473" y="410">paragraphs (1.545 ms)</text><line x1="85.0" x2="85.0" y1="242.83692623043413" y2="208.18611763957082" stroke="#dc2626" stroke-width="3" opacity=".3"/><circle cx="85.0" cy="230.1621370200989" r="5" fill="#dc2626" stroke="#dc2626" stroke-width="2"><title>mixed_document 0.1.6: 23.946 ms</title></circle><line x1="85.0" y1="230.1621370200989" x2="255.0" y2="223.43048119360057" stroke="#dc2626" stroke-width="2"/><line x1="255.0" x2="255.0" y1="238.71076054910324" y2="206.18402942329408" stroke="#dc2626" stroke-width="3" opacity=".3"/><circle cx="255.0" cy="223.43048119360057" r="5" fill="#dc2626" stroke="#dc2626" stroke-width="2"><title>mixed_document 0.1.7: 26.220 ms</title></circle><line x1="255.0" y1="223.43048119360057" x2="425.0" y2="225.4209279133417" stroke="#dc2626" stroke-width="2"/><line x1="425.0" x2="425.0" y1="242.10582438862193" y2="166.7353470677674" stroke="#dc2626" stroke-width="3" opacity=".3"/><circle cx="425.0" cy="225.4209279133417" r="5" fill="#dc2626" stroke="#dc2626" stroke-width="2"><title>mixed_document 0.1.8: 25.526 ms</title></circle><line x1="425.0" y1="225.4209279133417" x2="595.0" y2="221.96278687178147" stroke="#dc2626" stroke-width="2"/><line x1="595.0" x2="595.0" y1="237.1397261091924" y2="158.28560716485867" stroke="#dc2626" stroke-width="3" opacity=".3"/><circle cx="595.0" cy="221.96278687178147" r="5" fill="#dc2626" stroke="#dc2626" stroke-width="2"><title>mixed_document 0.1.9: 26.744 ms</title></circle><line x1="595.0" y1="221.96278687178147" x2="765.0" y2="240.2768578729529" stroke="#dc2626" stroke-width="2"/><line x1="765.0" x2="765.0" y1="256.07299535802076" y2="219.41032550880513" stroke="#dc2626" stroke-width="3" opacity=".3"/><circle cx="765.0" cy="240.2768578729529" r="5" fill="#dc2626" stroke="#dc2626" stroke-width="2"><title>mixed_document dev-main: 20.894 ms</title></circle><line x1="35" x2="55" y1="432" y2="432" stroke="#dc2626" stroke-width="3"/><text x="63" y="436">mixed_document (23.946 ms)</text><text x="35" y="530">Whiskers show sample ranges. Hollow points and gaps mark output changes.</text></svg>