<svg xmlns="http://www.w3.org/2000/svg" viewBox="0 0 850 560" role="img" aria-labelledby="title desc"><title id="title">rs engine version history</title><desc id="desc">Median elapsed time relative to the oldest tag, log scale. Lower is faster. Lines connect identical output only.</desc><style>text{font:13px system-ui;fill:#172033}.bg{fill:#fff}.grid{stroke:#cbd5e1}@media(prefers-color-scheme:dark){text{fill:#edf2f7}.bg{fill:#152033}.grid{stroke:#475569}}</style><rect class="bg" width="850" height="560"/><text x="35" y="28" font-weight="bold">rs · n=1024 · time / oldest tag (lower is faster)</text><text x="35" y="49">Each case starts at its own 1× baseline. Equal ratios do not mean equal milliseconds.</text><line class="grid" x1="85" x2="765" y1="310.0" y2="310.0"/><text x="25" y="315.0">0.17×</text><line class="grid" x1="85" x2="765" y1="250.0" y2="250.0"/><text x="25" y="255.0">0.39×</text><line class="grid" x1="85" x2="765" y1="190.0" y2="190.0"/><text x="25" y="195.0">0.89×</text><line class="grid" x1="85" x2="765" y1="130.0" y2="130.0"/><text x="25" y="135.0">2×</text><line class="grid" x1="85" x2="765" y1="70.0" y2="70.0"/><text x="25" y="75.0">4.6×</text><text x="85.0" y="337" text-anchor="middle">0.1.4</text><text x="255.0" y="337" text-anchor="middle">0.1.5</text><text x="425.0" y="337" text-anchor="middle">0.1.6</text><text x="595.0" y="337" text-anchor="middle">0.1.7</text><text x="765.0" y="337" text-anchor="middle">dev-main</text><line x1="85.0" x2="85.0" y1="186.80270455166703" y2="160.2884544404734" stroke="#2563eb" stroke-width="3" opacity=".3"/><circle cx="85.0" cy="181.60524361345344" r="5" fill="#2563eb" stroke="#2563eb" stroke-width="2"><title>quoted_fences 0.1.4: 2.143 ms</title></circle><line x1="85.0" y1="181.60524361345344" x2="255.0" y2="188.6382547511974" stroke="#2563eb" stroke-width="2"/><line x1="255.0" x2="255.0" y1="195.21765682701644" y2="147.58629011358605" stroke="#2563eb" stroke-width="3" opacity=".3"/><circle cx="255.0" cy="188.6382547511974" r="5" fill="#2563eb" stroke="#2563eb" stroke-width="2"><title>quoted_fences 0.1.5: 1.946 ms</title></circle><line x1="255.0" y1="188.6382547511974" x2="425.0" y2="192.7010256369587" stroke="#2563eb" stroke-width="2"/><line x1="425.0" x2="425.0" y1="196.22365977398118" y2="154.4102427790521" stroke="#2563eb" stroke-width="3" opacity=".3"/><circle cx="425.0" cy="192.7010256369587" r="5" fill="#2563eb" stroke="#2563eb" stroke-width="2"><title>quoted_fences 0.1.6: 1.841 ms</title></circle><line x1="425.0" y1="192.7010256369587" x2="595.0" y2="179.42458602968802" stroke="#2563eb" stroke-width="2"/><line x1="595.0" x2="595.0" y1="184.1352755542925" y2="165.7487347979335" stroke="#2563eb" stroke-width="3" opacity=".3"/><circle cx="595.0" cy="179.42458602968802" r="5" fill="#2563eb" stroke="#2563eb" stroke-width="2"><title>quoted_fences 0.1.7: 2.208 ms</title></circle><line x1="595.0" y1="179.42458602968802" x2="765.0" y2="272.10080722710927" stroke="#2563eb" stroke-width="2"/><line x1="765.0" x2="765.0" y1="296.5552081629856" y2="259.40278532235925" stroke="#2563eb" stroke-width="3" opacity=".3"/><circle cx="765.0" cy="272.10080722710927" r="5" fill="#2563eb" stroke="#2563eb" stroke-width="2"><title>quoted_fences dev-main: 0.620 ms</title></circle><line x1="35" x2="55" y1="380" y2="380" stroke="#2563eb" stroke-width="3"/><text x="63" y="384">quoted_fences (2.143 ms)</text><line x1="85.0" x2="85.0" y1="186.66712351766594" y2="158.63870768537626" stroke="#c026d3" stroke-width="3" opacity=".3"/><circle cx="85.0" cy="181.60524361345344" r="5" fill="#c026d3" stroke="#c026d3" stroke-width="2"><title>verse_definitions 0.1.4: 1.616 ms</title></circle><line x1="85.0" y1="181.60524361345344" x2="255.0" y2="182.4773876640088" stroke="#c026d3" stroke-width="2"/><line x1="255.0" x2="255.0" y1="187.10214560261636" y2="141.80360336772145" stroke="#c026d3" stroke-width="3" opacity=".3"/><circle cx="255.0" cy="182.4773876640088" r="5" fill="#c026d3" stroke="#c026d3" stroke-width="2"><title>verse_definitions 0.1.5: 1.597 ms</title></circle><line x1="255.0" y1="182.4773876640088" x2="425.0" y2="211.32802706347377" stroke="#c026d3" stroke-width="2"/><line x1="425.0" x2="425.0" y1="214.4728595320264" y2="181.5681201480498" stroke="#c026d3" stroke-width="3" opacity=".3"/><circle cx="425.0" cy="211.32802706347377" r="5" fill="#c026d3" stroke="#c026d3" stroke-width="2"><title>verse_definitions 0.1.6: 1.075 ms</title></circle><line x1="425.0" y1="211.32802706347377" x2="595.0" y2="172.8568191711597" stroke="#c026d3" stroke-width="2"/><line x1="595.0" x2="595.0" y1="176.61556855718325" y2="123.26152675242426" stroke="#c026d3" stroke-width="3" opacity=".3"/><circle cx="595.0" cy="172.8568191711597" r="5" fill="#c026d3" stroke="#c026d3" stroke-width="2"><title>verse_definitions 0.1.7: 1.821 ms</title></circle><line x1="765.0" x2="765.0" y1="205.97357180043298" y2="196.1136270623465" stroke="#c026d3" stroke-width="3" opacity=".3"/><circle cx="765.0" cy="201.39507112725514" r="5" fill="none" stroke="#c026d3" stroke-width="2"><title>verse_definitions dev-main: 1.232 ms</title></circle><line x1="445" x2="465" y1="380" y2="380" stroke="#c026d3" stroke-width="3"/><text x="473" y="384">verse_definitions (1.616 ms)</text><line x1="85.0" x2="85.0" y1="184.15530447522164" y2="166.6598696319009" stroke="#059669" stroke-width="3" opacity=".3"/><circle cx="85.0" cy="181.60524361345344" r="5" fill="#059669" stroke="#059669" stroke-width="2"><title>verse_equivalent 0.1.4: 0.910 ms</title></circle><line x1="85.0" y1="181.60524361345344" x2="255.0" y2="159.794628279507" stroke="#059669" stroke-width="2"/><line x1="255.0" x2="255.0" y1="162.39951200447908" y2="108.2656623087122" stroke="#059669" stroke-width="3" opacity=".3"/><circle cx="255.0" cy="159.794628279507" r="5" fill="#059669" stroke="#059669" stroke-width="2"><title>verse_equivalent 0.1.5: 1.227 ms</title></circle><line x1="255.0" y1="159.794628279507" x2="425.0" y2="158.55263668088432" stroke="#059669" stroke-width="2"/><line x1="425.0" x2="425.0" y1="161.82249545042555" y2="129.5406798045773" stroke="#059669" stroke-width="3" opacity=".3"/><circle cx="425.0" cy="158.55263668088432" r="5" fill="#059669" stroke="#059669" stroke-width="2"><title>verse_equivalent 0.1.6: 1.248 ms</title></circle><line x1="425.0" y1="158.55263668088432" x2="595.0" y2="132.32691910320628" stroke="#059669" stroke-width="2"/><line x1="595.0" x2="595.0" y1="152.5886429079089" y2="83.4447918370144" stroke="#059669" stroke-width="3" opacity=".3"/><circle cx="595.0" cy="132.32691910320628" r="5" fill="#059669" stroke="#059669" stroke-width="2"><title>verse_equivalent 0.1.7: 1.788 ms</title></circle><line x1="595.0" y1="132.32691910320628" x2="765.0" y2="146.72654539135488" stroke="#059669" stroke-width="2"/><line x1="765.0" x2="765.0" y1="161.299231256213" y2="142.34789198604219" stroke="#059669" stroke-width="3" opacity=".3"/><circle cx="765.0" cy="146.72654539135488" r="5" fill="#059669" stroke="#059669" stroke-width="2"><title>verse_equivalent dev-main: 1.468 ms</title></circle><line x1="35" x2="55" y1="406" y2="406" stroke="#059669" stroke-width="3"/><text x="63" y="410">verse_equivalent (0.910 ms)</text><line x1="85.0" x2="85.0" y1="184.22589126625195" y2="172.17797169459152" stroke="#d97706" stroke-width="3" opacity=".3"/><circle cx="85.0" cy="181.60524361345344" r="5" fill="#d97706" stroke="#d97706" stroke-width="2"><title>paragraphs 0.1.4: 0.201 ms</title></circle><line x1="85.0" y1="181.60524361345344" x2="255.0" y2="182.06980169146442" stroke="#d97706" stroke-width="2"/><line x1="255.0" x2="255.0" y1="185.25767867105725" y2="160.00526544149184" stroke="#d97706" stroke-width="3" opacity=".3"/><circle cx="255.0" cy="182.06980169146442" r="5" fill="#d97706" stroke="#d97706" stroke-width="2"><title>paragraphs 0.1.5: 0.199 ms</title></circle><line x1="255.0" y1="182.06980169146442" x2="425.0" y2="182.286754427009" stroke="#d97706" stroke-width="2"/><line x1="425.0" x2="425.0" y1="185.28446489554096" y2="159.51614349104636" stroke="#d97706" stroke-width="3" opacity=".3"/><circle cx="425.0" cy="182.286754427009" r="5" fill="#d97706" stroke="#d97706" stroke-width="2"><title>paragraphs 0.1.6: 0.199 ms</title></circle><line x1="425.0" y1="182.286754427009" x2="595.0" y2="175.65620072112134" stroke="#d97706" stroke-width="2"/><line x1="595.0" x2="595.0" y1="182.066139389221" y2="132.8211833353466" stroke="#d97706" stroke-width="3" opacity=".3"/><circle cx="595.0" cy="175.65620072112134" r="5" fill="#d97706" stroke="#d97706" stroke-width="2"><title>paragraphs 0.1.7: 0.218 ms</title></circle><line x1="595.0" y1="175.65620072112134" x2="765.0" y2="198.68303371797504" stroke="#d97706" stroke-width="2"/><line x1="765.0" x2="765.0" y1="209.43861333715563" y2="190.55770583712365" stroke="#d97706" stroke-width="3" opacity=".3"/><circle cx="765.0" cy="198.68303371797504" r="5" fill="#d97706" stroke="#d97706" stroke-width="2"><title>paragraphs dev-main: 0.159 ms</title></circle><line x1="445" x2="465" y1="406" y2="406" stroke="#d97706" stroke-width="3"/><text x="473" y="410">paragraphs (0.201 ms)</text><line x1="85.0" x2="85.0" y1="184.3973258333396" y2="130.31567222144386" stroke="#dc2626" stroke-width="3" opacity=".3"/><circle cx="85.0" cy="181.60524361345344" r="5" fill="#dc2626" stroke="#dc2626" stroke-width="2"><title>mixed_document 0.1.4: 2.679 ms</title></circle><line x1="85.0" y1="181.60524361345344" x2="255.0" y2="189.87005152215164" stroke="#dc2626" stroke-width="2"/><line x1="255.0" x2="255.0" y1="195.37137160676124" y2="145.84275865187752" stroke="#dc2626" stroke-width="3" opacity=".3"/><circle cx="255.0" cy="189.87005152215164" r="5" fill="#dc2626" stroke="#dc2626" stroke-width="2"><title>mixed_document 0.1.5: 2.392 ms</title></circle><line x1="255.0" y1="189.87005152215164" x2="425.0" y2="188.98970333955893" stroke="#dc2626" stroke-width="2"/><line x1="425.0" x2="425.0" y1="195.6799642263263" y2="152.86577710033959" stroke="#dc2626" stroke-width="3" opacity=".3"/><circle cx="425.0" cy="188.98970333955893" r="5" fill="#dc2626" stroke="#dc2626" stroke-width="2"><title>mixed_document 0.1.6: 2.421 ms</title></circle><line x1="425.0" y1="188.98970333955893" x2="595.0" y2="182.42568149275976" stroke="#dc2626" stroke-width="2"/><line x1="595.0" x2="595.0" y1="185.13426271198193" y2="150.50967106594388" stroke="#dc2626" stroke-width="3" opacity=".3"/><circle cx="595.0" cy="182.42568149275976" r="5" fill="#dc2626" stroke="#dc2626" stroke-width="2"><title>mixed_document 0.1.7: 2.649 ms</title></circle><line x1="595.0" y1="182.42568149275976" x2="765.0" y2="211.63017424573488" stroke="#dc2626" stroke-width="2"/><line x1="765.0" x2="765.0" y1="212.87150011081542" y2="201.6902460120943" stroke="#dc2626" stroke-width="3" opacity=".3"/><circle cx="765.0" cy="211.63017424573488" r="5" fill="#dc2626" stroke="#dc2626" stroke-width="2"><title>mixed_document dev-main: 1.775 ms</title></circle><line x1="35" x2="55" y1="432" y2="432" stroke="#dc2626" stroke-width="3"/><text x="63" y="436">mixed_document (2.679 ms)</text><text x="35" y="530">Whiskers show sample ranges. Hollow points and gaps mark output changes.</text></svg>