<svg xmlns="http://www.w3.org/2000/svg" viewBox="0 0 850 560" role="img" aria-labelledby="title desc"><title id="title">php engine version history</title><desc id="desc">Median elapsed time relative to the oldest tag, log scale. Lower is faster. Lines connect identical output only.</desc><style>text{font:13px system-ui;fill:#172033}.bg{fill:#fff}.grid{stroke:#cbd5e1}@media(prefers-color-scheme:dark){text{fill:#edf2f7}.bg{fill:#152033}.grid{stroke:#475569}}</style><rect class="bg" width="850" height="560"/><text x="35" y="28" font-weight="bold">php · n=1024 · time / oldest tag (lower is faster)</text><text x="35" y="49">Each case starts at its own 1× baseline. Equal ratios do not mean equal milliseconds.</text><line class="grid" x1="85" x2="765" y1="310.0" y2="310.0"/><text x="25" y="315.0">0.46×</text><line class="grid" x1="85" x2="765" y1="250.0" y2="250.0"/><text x="25" y="255.0">1.8×</text><line class="grid" x1="85" x2="765" y1="190.0" y2="190.0"/><text x="25" y="195.0">7.1×</text><line class="grid" x1="85" x2="765" y1="130.0" y2="130.0"/><text x="25" y="135.0">28×</text><line class="grid" x1="85" x2="765" y1="70.0" y2="70.0"/><text x="25" y="75.0">1.1e+02×</text><text x="85.0" y="337" text-anchor="middle">0.1.7</text><text x="255.0" y="337" text-anchor="middle">0.1.8</text><text x="425.0" y="337" text-anchor="middle">0.1.9</text><text x="595.0" y="337" text-anchor="middle">0.1.10</text><text x="765.0" y="337" text-anchor="middle">dev-main</text><line x1="85.0" x2="85.0" y1="279.99034193952343" y2="256.3020280540177" stroke="#2563eb" stroke-width="3" opacity=".3"/><circle cx="85.0" cy="275.7981681629391" r="5" fill="#2563eb" stroke="#2563eb" stroke-width="2"><title>quoted_fences 0.1.7: 7.126 ms</title></circle><line x1="85.0" y1="275.7981681629391" x2="255.0" y2="274.08002505211726" stroke="#2563eb" stroke-width="2"/><line x1="255.0" x2="255.0" y1="279.41170887731573" y2="259.29261820563903" stroke="#2563eb" stroke-width="3" opacity=".3"/><circle cx="255.0" cy="274.08002505211726" r="5" fill="#2563eb" stroke="#2563eb" stroke-width="2"><title>quoted_fences 0.1.8: 7.411 ms</title></circle><line x1="255.0" y1="274.08002505211726" x2="425.0" y2="264.77857356971117" stroke="#2563eb" stroke-width="2"/><line x1="425.0" x2="425.0" y1="275.3603955672881" y2="241.1455853872376" stroke="#2563eb" stroke-width="3" opacity=".3"/><circle cx="425.0" cy="264.77857356971117" r="5" fill="#2563eb" stroke="#2563eb" stroke-width="2"><title>quoted_fences 0.1.9: 9.164 ms</title></circle><line x1="425.0" y1="264.77857356971117" x2="595.0" y2="259.720644080883" stroke="#2563eb" stroke-width="2"/><line x1="595.0" x2="595.0" y1="266.73984778269073" y2="242.96278190258658" stroke="#2563eb" stroke-width="3" opacity=".3"/><circle cx="595.0" cy="259.720644080883" r="5" fill="#2563eb" stroke="#2563eb" stroke-width="2"><title>quoted_fences 0.1.10: 10.285 ms</title></circle><line x1="595.0" y1="259.720644080883" x2="765.0" y2="261.42693355527234" stroke="#2563eb" stroke-width="2"/><line x1="765.0" x2="765.0" y1="266.4910863655741" y2="245.08523308832795" stroke="#2563eb" stroke-width="3" opacity=".3"/><circle cx="765.0" cy="261.42693355527234" r="5" fill="#2563eb" stroke="#2563eb" stroke-width="2"><title>quoted_fences dev-main: 9.892 ms</title></circle><line x1="35" x2="55" y1="380" y2="380" stroke="#2563eb" stroke-width="3"/><text x="63" y="384">quoted_fences (7.126 ms)</text><line x1="85.0" x2="85.0" y1="279.4735903510578" y2="262.805366984419" stroke="#c026d3" stroke-width="3" opacity=".3"/><circle cx="85.0" cy="275.7981681629391" r="5" fill="#c026d3" stroke="#c026d3" stroke-width="2"><title>verse_definitions 0.1.7: 22.188 ms</title></circle><line x1="85.0" y1="275.7981681629391" x2="255.0" y2="273.8946763352244" stroke="#c026d3" stroke-width="2"/><line x1="255.0" x2="255.0" y1="279.34221992157336" y2="264.03770235768434" stroke="#c026d3" stroke-width="3" opacity=".3"/><circle cx="255.0" cy="273.8946763352244" r="5" fill="#c026d3" stroke="#c026d3" stroke-width="2"><title>verse_definitions 0.1.8: 23.174 ms</title></circle><line x1="255.0" y1="273.8946763352244" x2="425.0" y2="265.71871633363355" stroke="#c026d3" stroke-width="2"/><line x1="425.0" x2="425.0" y1="277.5540047018167" y2="252.05624720687769" stroke="#c026d3" stroke-width="3" opacity=".3"/><circle cx="425.0" cy="265.71871633363355" r="5" fill="#c026d3" stroke="#c026d3" stroke-width="2"><title>verse_definitions 0.1.9: 27.927 ms</title></circle><line x1="425.0" y1="265.71871633363355" x2="595.0" y2="118.68300424418632" stroke="#c026d3" stroke-width="2"/><line x1="595.0" x2="595.0" y1="123.23949655730976" y2="109.73327575213767" stroke="#c026d3" stroke-width="3" opacity=".3"/><circle cx="595.0" cy="118.68300424418632" r="5" fill="#c026d3" stroke="#c026d3" stroke-width="2"><title>verse_definitions 0.1.10: 800.499 ms</title></circle><line x1="595.0" y1="118.68300424418632" x2="765.0" y2="263.7483696760501" stroke="#c026d3" stroke-width="2"/><line x1="765.0" x2="765.0" y1="268.3933704946674" y2="239.35650841512896" stroke="#c026d3" stroke-width="3" opacity=".3"/><circle cx="765.0" cy="263.7483696760501" r="5" fill="#c026d3" stroke="#c026d3" stroke-width="2"><title>verse_definitions dev-main: 29.212 ms</title></circle><line x1="445" x2="465" y1="380" y2="380" stroke="#c026d3" stroke-width="3"/><text x="473" y="384">verse_definitions (22.188 ms)</text><line x1="85.0" x2="85.0" y1="279.4636177012276" y2="262.1551460520761" stroke="#059669" stroke-width="3" opacity=".3"/><circle cx="85.0" cy="275.7981681629391" r="5" fill="#059669" stroke="#059669" stroke-width="2"><title>verse_equivalent 0.1.7: 23.524 ms</title></circle><line x1="85.0" y1="275.7981681629391" x2="255.0" y2="275.093095636612" stroke="#059669" stroke-width="2"/><line x1="255.0" x2="255.0" y1="279.0504765451873" y2="262.7052995527845" stroke="#059669" stroke-width="3" opacity=".3"/><circle cx="255.0" cy="275.093095636612" r="5" fill="#059669" stroke="#059669" stroke-width="2"><title>verse_equivalent 0.1.8: 23.905 ms</title></circle><line x1="255.0" y1="275.093095636612" x2="425.0" y2="270.2239242160537" stroke="#059669" stroke-width="2"/><line x1="425.0" x2="425.0" y1="275.98682061458794" y2="252.3325381375727" stroke="#059669" stroke-width="3" opacity=".3"/><circle cx="425.0" cy="270.2239242160537" r="5" fill="#059669" stroke="#059669" stroke-width="2"><title>verse_equivalent 0.1.9: 26.715 ms</title></circle><line x1="425.0" y1="270.2239242160537" x2="595.0" y2="104.45222316965766" stroke="#059669" stroke-width="2"/><line x1="595.0" x2="595.0" y1="108.5498991954675" y2="99.98492574151607" stroke="#059669" stroke-width="3" opacity=".3"/><circle cx="595.0" cy="104.45222316965766" r="5" fill="#059669" stroke="#059669" stroke-width="2"><title>verse_equivalent 0.1.10: 1174.312 ms</title></circle><line x1="595.0" y1="104.45222316965766" x2="765.0" y2="261.93003099565584" stroke="#059669" stroke-width="2"/><line x1="765.0" x2="765.0" y1="268.86169533165395" y2="240.1145990952342" stroke="#059669" stroke-width="3" opacity=".3"/><circle cx="765.0" cy="261.93003099565584" r="5" fill="#059669" stroke="#059669" stroke-width="2"><title>verse_equivalent dev-main: 32.282 ms</title></circle><line x1="35" x2="55" y1="406" y2="406" stroke="#059669" stroke-width="3"/><text x="63" y="410">verse_equivalent (23.524 ms)</text><line x1="85.0" x2="85.0" y1="278.25600619009" y2="251.7684374094099" stroke="#d97706" stroke-width="3" opacity=".3"/><circle cx="85.0" cy="275.7981681629391" r="5" fill="#d97706" stroke="#d97706" stroke-width="2"><title>paragraphs 0.1.7: 2.233 ms</title></circle><line x1="85.0" y1="275.7981681629391" x2="255.0" y2="276.10179345859285" stroke="#d97706" stroke-width="2"/><line x1="255.0" x2="255.0" y1="277.3956747559104" y2="256.34296178026636" stroke="#d97706" stroke-width="3" opacity=".3"/><circle cx="255.0" cy="276.10179345859285" r="5" fill="#d97706" stroke="#d97706" stroke-width="2"><title>paragraphs 0.1.8: 2.218 ms</title></circle><line x1="255.0" y1="276.10179345859285" x2="425.0" y2="275.6740334369987" stroke="#d97706" stroke-width="2"/><line x1="425.0" x2="425.0" y1="278.0595549108962" y2="251.12431612573144" stroke="#d97706" stroke-width="3" opacity=".3"/><circle cx="425.0" cy="275.6740334369987" r="5" fill="#d97706" stroke="#d97706" stroke-width="2"><title>paragraphs 0.1.9: 2.240 ms</title></circle><line x1="425.0" y1="275.6740334369987" x2="595.0" y2="269.2555573021475" stroke="#d97706" stroke-width="2"/><line x1="595.0" x2="595.0" y1="270.6809188185116" y2="257.70250091512736" stroke="#d97706" stroke-width="3" opacity=".3"/><circle cx="595.0" cy="269.2555573021475" r="5" fill="#d97706" stroke="#d97706" stroke-width="2"><title>paragraphs 0.1.10: 2.593 ms</title></circle><line x1="595.0" y1="269.2555573021475" x2="765.0" y2="274.6174066581819" stroke="#d97706" stroke-width="2"/><line x1="765.0" x2="765.0" y1="277.548859283226" y2="252.71684444339627" stroke="#d97706" stroke-width="3" opacity=".3"/><circle cx="765.0" cy="274.6174066581819" r="5" fill="#d97706" stroke="#d97706" stroke-width="2"><title>paragraphs dev-main: 2.294 ms</title></circle><line x1="445" x2="465" y1="406" y2="406" stroke="#d97706" stroke-width="3"/><text x="473" y="410">paragraphs (2.233 ms)</text><line x1="85.0" x2="85.0" y1="280.29958224120855" y2="260.3524441377666" stroke="#dc2626" stroke-width="3" opacity=".3"/><circle cx="85.0" cy="275.7981681629391" r="5" fill="#dc2626" stroke="#dc2626" stroke-width="2"><title>mixed_document 0.1.7: 747.491 ms</title></circle><line x1="255.0" x2="255.0" y1="274.3062787268736" y2="261.43784463736546" stroke="#dc2626" stroke-width="3" opacity=".3"/><circle cx="255.0" cy="270.3176665600463" r="5" fill="none" stroke="#dc2626" stroke-width="2"><title>mixed_document 0.1.8: 847.082 ms</title></circle><line x1="255.0" y1="270.3176665600463" x2="425.0" y2="266.35054386685823" stroke="#dc2626" stroke-width="2"/><line x1="425.0" x2="425.0" y1="274.7329829722233" y2="259.31441350557833" stroke="#dc2626" stroke-width="3" opacity=".3"/><circle cx="425.0" cy="266.35054386685823" r="5" fill="none" stroke="#dc2626" stroke-width="2"><title>mixed_document 0.1.9: 927.353 ms</title></circle><line x1="425.0" y1="266.35054386685823" x2="595.0" y2="288.6123994344484" stroke="#dc2626" stroke-width="2"/><line x1="595.0" x2="595.0" y1="295.0904252651383" y2="277.44626412355774" stroke="#dc2626" stroke-width="3" opacity=".3"/><circle cx="595.0" cy="288.6123994344484" r="5" fill="none" stroke="#dc2626" stroke-width="2"><title>mixed_document 0.1.10: 557.954 ms</title></circle><line x1="595.0" y1="288.6123994344484" x2="765.0" y2="297.938478880728" stroke="#dc2626" stroke-width="2"/><line x1="765.0" x2="765.0" y1="301.92850175690694" y2="289.21717535989757" stroke="#dc2626" stroke-width="3" opacity=".3"/><circle cx="765.0" cy="297.938478880728" r="5" fill="none" stroke="#dc2626" stroke-width="2"><title>mixed_document dev-main: 450.987 ms</title></circle><line x1="35" x2="55" y1="432" y2="432" stroke="#dc2626" stroke-width="3"/><text x="63" y="436">mixed_document (747.491 ms)</text><line x1="85.0" x2="85.0" y1="282.92606267281303" y2="257.16359043969186" stroke="#0891b2" stroke-width="3" opacity=".3"/><circle cx="85.0" cy="275.7981681629391" r="5" fill="#0891b2" stroke="#0891b2" stroke-width="2"><title>quoted_false_mixed_closer 0.1.7: 7.244 ms</title></circle><line x1="85.0" y1="275.7981681629391" x2="255.0" y2="274.94781373469436" stroke="#0891b2" stroke-width="2"/><line x1="255.0" x2="255.0" y1="279.5388287139928" y2="258.279202795529" stroke="#0891b2" stroke-width="3" opacity=".3"/><circle cx="255.0" cy="274.94781373469436" r="5" fill="#0891b2" stroke="#0891b2" stroke-width="2"><title>quoted_false_mixed_closer 0.1.8: 7.386 ms</title></circle><line x1="255.0" y1="274.94781373469436" x2="425.0" y2="271.48929444950375" stroke="#0891b2" stroke-width="2"/><line x1="425.0" x2="425.0" y1="278.9392831363939" y2="261.44597379778156" stroke="#0891b2" stroke-width="3" opacity=".3"/><circle cx="425.0" cy="271.48929444950375" r="5" fill="#0891b2" stroke="#0891b2" stroke-width="2"><title>quoted_false_mixed_closer 0.1.9: 7.992 ms</title></circle><line x1="425.0" y1="271.48929444950375" x2="595.0" y2="260.03849290997556" stroke="#0891b2" stroke-width="2"/><line x1="595.0" x2="595.0" y1="268.8409753785404" y2="235.5275202958145" stroke="#0891b2" stroke-width="3" opacity=".3"/><circle cx="595.0" cy="260.03849290997556" r="5" fill="#0891b2" stroke="#0891b2" stroke-width="2"><title>quoted_false_mixed_closer 0.1.10: 10.379 ms</title></circle><line x1="595.0" y1="260.03849290997556" x2="765.0" y2="262.2448052226989" stroke="#0891b2" stroke-width="2"/><line x1="765.0" x2="765.0" y1="269.10186952816315" y2="248.19430422012147" stroke="#0891b2" stroke-width="3" opacity=".3"/><circle cx="765.0" cy="262.2448052226989" r="5" fill="#0891b2" stroke="#0891b2" stroke-width="2"><title>quoted_false_mixed_closer dev-main: 9.869 ms</title></circle><line x1="445" x2="465" y1="432" y2="432" stroke="#0891b2" stroke-width="3"/><text x="473" y="436">quoted_false_mixed_closer (7.244 ms)</text><line x1="85.0" x2="85.0" y1="280.5153546859962" y2="259.78519533613576" stroke="#7c3aed" stroke-width="3" opacity=".3"/><circle cx="85.0" cy="275.7981681629391" r="5" fill="#7c3aed" stroke="#7c3aed" stroke-width="2"><title>quoted_indented_closer 0.1.7: 7.207 ms</title></circle><line x1="85.0" y1="275.7981681629391" x2="255.0" y2="274.701314027245" stroke="#7c3aed" stroke-width="2"/><line x1="255.0" x2="255.0" y1="279.79145405809993" y2="264.12702734937966" stroke="#7c3aed" stroke-width="3" opacity=".3"/><circle cx="255.0" cy="274.701314027245" r="5" fill="#7c3aed" stroke="#7c3aed" stroke-width="2"><title>quoted_indented_closer 0.1.8: 7.389 ms</title></circle><line x1="255.0" y1="274.701314027245" x2="425.0" y2="273.22523646569823" stroke="#7c3aed" stroke-width="2"/><line x1="425.0" x2="425.0" y1="278.5467515137871" y2="261.7927516672479" stroke="#7c3aed" stroke-width="3" opacity=".3"/><circle cx="425.0" cy="273.22523646569823" r="5" fill="#7c3aed" stroke="#7c3aed" stroke-width="2"><title>quoted_indented_closer 0.1.9: 7.642 ms</title></circle><line x1="425.0" y1="273.22523646569823" x2="595.0" y2="262.34923352851456" stroke="#7c3aed" stroke-width="2"/><line x1="595.0" x2="595.0" y1="269.0131876230383" y2="247.29191713569395" stroke="#7c3aed" stroke-width="3" opacity=".3"/><circle cx="595.0" cy="262.34923352851456" r="5" fill="#7c3aed" stroke="#7c3aed" stroke-width="2"><title>quoted_indented_closer 0.1.10: 9.795 ms</title></circle><line x1="595.0" y1="262.34923352851456" x2="765.0" y2="262.0651201187677" stroke="#7c3aed" stroke-width="2"/><line x1="765.0" x2="765.0" y1="266.7310864867683" y2="252.01470014140287" stroke="#7c3aed" stroke-width="3" opacity=".3"/><circle cx="765.0" cy="262.0651201187677" r="5" fill="#7c3aed" stroke="#7c3aed" stroke-width="2"><title>quoted_indented_closer dev-main: 9.859 ms</title></circle><line x1="35" x2="55" y1="458" y2="458" stroke="#7c3aed" stroke-width="3"/><text x="63" y="462">quoted_indented_closer (7.207 ms)</text><line x1="85.0" x2="85.0" y1="278.87510271382706" y2="256.425725554343" stroke="#475569" stroke-width="3" opacity=".3"/><circle cx="85.0" cy="275.7981681629391" r="5" fill="#475569" stroke="#475569" stroke-width="2"><title>html_table 0.1.7: 176.754 ms</title></circle><line x1="85.0" y1="275.7981681629391" x2="255.0" y2="217.17646479237766" stroke="#475569" stroke-width="2"/><line x1="255.0" x2="255.0" y1="220.99408118438063" y2="200.97165262534784" stroke="#475569" stroke-width="3" opacity=".3"/><circle cx="255.0" cy="217.17646479237766" r="5" fill="#475569" stroke="#475569" stroke-width="2"><title>html_table 0.1.8: 673.585 ms</title></circle><line x1="255.0" y1="217.17646479237766" x2="425.0" y2="215.29946478595213" stroke="#475569" stroke-width="2"/><line x1="425.0" x2="425.0" y1="221.00654428300936" y2="198.85988274596352" stroke="#475569" stroke-width="3" opacity=".3"/><circle cx="425.0" cy="215.29946478595213" r="5" fill="#475569" stroke="#475569" stroke-width="2"><title>html_table 0.1.9: 703.066 ms</title></circle><line x1="425.0" y1="215.29946478595213" x2="595.0" y2="182.12220440968758" stroke="#475569" stroke-width="2"/><line x1="595.0" x2="595.0" y1="187.85338635158354" y2="172.4710730318084" stroke="#475569" stroke-width="3" opacity=".3"/><circle cx="595.0" cy="182.12220440968758" r="5" fill="#475569" stroke="#475569" stroke-width="2"><title>html_table 0.1.10: 1499.097 ms</title></circle><line x1="595.0" y1="182.12220440968758" x2="765.0" y2="233.4455027511591" stroke="#475569" stroke-width="2"/><line x1="765.0" x2="765.0" y1="239.10275053715853" y2="222.46568945821662" stroke="#475569" stroke-width="3" opacity=".3"/><circle cx="765.0" cy="233.4455027511591" r="5" fill="#475569" stroke="#475569" stroke-width="2"><title>html_table dev-main: 464.668 ms</title></circle><line x1="445" x2="465" y1="458" y2="458" stroke="#475569" stroke-width="3"/><text x="473" y="462">html_table (import) (176.754 ms)</text><line x1="85.0" x2="85.0" y1="278.56649487159143" y2="254.8218929337995" stroke="#2563eb" stroke-width="3" opacity=".3"/><circle cx="85.0" cy="275.7981681629391" r="5" fill="#2563eb" stroke="#2563eb" stroke-width="2"><title>html_definition_list 0.1.7: 19.463 ms</title></circle><line x1="85.0" y1="275.7981681629391" x2="255.0" y2="152.64468225619154" stroke="#2563eb" stroke-width="2"/><line x1="255.0" x2="255.0" y1="158.69340846130973" y2="136.75460435306562" stroke="#2563eb" stroke-width="3" opacity=".3"/><circle cx="255.0" cy="152.64468225619154" r="5" fill="#2563eb" stroke="#2563eb" stroke-width="2"><title>html_definition_list 0.1.8: 323.468 ms</title></circle><line x1="255.0" y1="152.64468225619154" x2="425.0" y2="154.123681857497" stroke="#2563eb" stroke-width="2"/><line x1="425.0" x2="425.0" y1="158.7110503831222" y2="142.04199794958402" stroke="#2563eb" stroke-width="3" opacity=".3"/><circle cx="425.0" cy="154.123681857497" r="5" fill="#2563eb" stroke="#2563eb" stroke-width="2"><title>html_definition_list 0.1.9: 312.732 ms</title></circle><line x1="425.0" y1="154.123681857497" x2="595.0" y2="95.5320850658934" stroke="#2563eb" stroke-width="2"/><line x1="595.0" x2="595.0" y1="100.45655297859744" y2="78.071498243093" stroke="#2563eb" stroke-width="3" opacity=".3"/><circle cx="595.0" cy="95.5320850658934" r="5" fill="#2563eb" stroke="#2563eb" stroke-width="2"><title>html_definition_list 0.1.10: 1190.962 ms</title></circle><line x1="595.0" y1="95.5320850658934" x2="765.0" y2="175.9156401839479" stroke="#2563eb" stroke-width="2"/><line x1="765.0" x2="765.0" y1="184.84748420653693" y2="165.30400468146547" stroke="#2563eb" stroke-width="3" opacity=".3"/><circle cx="765.0" cy="175.9156401839479" r="5" fill="#2563eb" stroke="#2563eb" stroke-width="2"><title>html_definition_list dev-main: 190.188 ms</title></circle><line x1="35" x2="55" y1="484" y2="484" stroke="#2563eb" stroke-width="3"/><text x="63" y="488">html_definition_list (import) (19.463 ms)</text><text x="35" y="530">Whiskers show sample ranges. Hollow points and gaps mark output changes.</text></svg>