<svg xmlns="http://www.w3.org/2000/svg" viewBox="0 0 850 560" role="img" aria-labelledby="title desc"><title id="title">js engine version history</title><desc id="desc">Median elapsed time relative to the oldest tag, log scale. Lower is faster. Lines connect identical output only.</desc><style>text{font:13px system-ui;fill:#172033}.bg{fill:#fff}.grid{stroke:#cbd5e1}@media(prefers-color-scheme:dark){text{fill:#edf2f7}.bg{fill:#152033}.grid{stroke:#475569}}</style><rect class="bg" width="850" height="560"/><text x="35" y="28" font-weight="bold">js · n=1024 · time / oldest tag (lower is faster)</text><text x="35" y="49">Each case starts at its own 1× baseline. Equal ratios do not mean equal milliseconds.</text><line class="grid" x1="85" x2="765" y1="310.0" y2="310.0"/><text x="25" y="315.0">0.34×</text><line class="grid" x1="85" x2="765" y1="250.0" y2="250.0"/><text x="25" y="255.0">0.63×</text><line class="grid" x1="85" x2="765" y1="190.0" y2="190.0"/><text x="25" y="195.0">1.2×</text><line class="grid" x1="85" x2="765" y1="130.0" y2="130.0"/><text x="25" y="135.0">2.1×</text><line class="grid" x1="85" x2="765" y1="70.0" y2="70.0"/><text x="25" y="75.0">3.9×</text><text x="85.0" y="337" text-anchor="middle">0.1.6</text><text x="255.0" y="337" text-anchor="middle">0.1.7</text><text x="425.0" y="337" text-anchor="middle">0.1.8</text><text x="595.0" y="337" text-anchor="middle">0.1.9</text><text x="765.0" y="337" text-anchor="middle">dev-main</text><line x1="85.0" x2="85.0" y1="224.9824988411562" y2="136.0397368165272" stroke="#2563eb" stroke-width="3" opacity=".3"/><circle cx="85.0" cy="203.79920155824476" r="5" fill="#2563eb" stroke="#2563eb" stroke-width="2"><title>quoted_fences 0.1.6: 3.366 ms</title></circle><line x1="85.0" y1="203.79920155824476" x2="255.0" y2="207.05653808385284" stroke="#2563eb" stroke-width="2"/><line x1="255.0" x2="255.0" y1="225.39512935992968" y2="88.18023155009877" stroke="#2563eb" stroke-width="3" opacity=".3"/><circle cx="255.0" cy="207.05653808385284" r="5" fill="#2563eb" stroke="#2563eb" stroke-width="2"><title>quoted_fences 0.1.7: 3.257 ms</title></circle><line x1="255.0" y1="207.05653808385284" x2="425.0" y2="229.90602840304575" stroke="#2563eb" stroke-width="2"/><line x1="425.0" x2="425.0" y1="253.04455167681198" y2="182.59582936096427" stroke="#2563eb" stroke-width="3" opacity=".3"/><circle cx="425.0" cy="229.90602840304575" r="5" fill="#2563eb" stroke="#2563eb" stroke-width="2"><title>quoted_fences 0.1.8: 2.584 ms</title></circle><line x1="425.0" y1="229.90602840304575" x2="595.0" y2="237.1499443890001" stroke="#2563eb" stroke-width="2"/><line x1="595.0" x2="595.0" y1="255.32933336410875" y2="149.26491670332834" stroke="#2563eb" stroke-width="3" opacity=".3"/><circle cx="595.0" cy="237.1499443890001" r="5" fill="#2563eb" stroke="#2563eb" stroke-width="2"><title>quoted_fences 0.1.9: 2.401 ms</title></circle><line x1="595.0" y1="237.1499443890001" x2="765.0" y2="246.06012569274114" stroke="#2563eb" stroke-width="2"/><line x1="765.0" x2="765.0" y1="254.93016668363757" y2="216.74131565976933" stroke="#2563eb" stroke-width="3" opacity=".3"/><circle cx="765.0" cy="246.06012569274114" r="5" fill="#2563eb" stroke="#2563eb" stroke-width="2"><title>quoted_fences dev-main: 2.194 ms</title></circle><line x1="35" x2="55" y1="380" y2="380" stroke="#2563eb" stroke-width="3"/><text x="63" y="384">quoted_fences (3.366 ms)</text><line x1="85.0" x2="85.0" y1="228.59792692359912" y2="140.46003277250676" stroke="#c026d3" stroke-width="3" opacity=".3"/><circle cx="85.0" cy="203.79920155824476" r="5" fill="#c026d3" stroke="#c026d3" stroke-width="2"><title>verse_definitions 0.1.6: 5.499 ms</title></circle><line x1="85.0" y1="203.79920155824476" x2="255.0" y2="212.4876289351349" stroke="#c026d3" stroke-width="2"/><line x1="255.0" x2="255.0" y1="236.21995419668076" y2="163.7768923614755" stroke="#c026d3" stroke-width="3" opacity=".3"/><circle cx="255.0" cy="212.4876289351349" r="5" fill="#c026d3" stroke="#c026d3" stroke-width="2"><title>verse_definitions 0.1.7: 5.036 ms</title></circle><line x1="255.0" y1="212.4876289351349" x2="425.0" y2="179.78903954403515" stroke="#c026d3" stroke-width="2"/><line x1="425.0" x2="425.0" y1="209.7121237583134" y2="125.13260711911684" stroke="#c026d3" stroke-width="3" opacity=".3"/><circle cx="425.0" cy="179.78903954403515" r="5" fill="#c026d3" stroke="#c026d3" stroke-width="2"><title>verse_definitions 0.1.8: 7.014 ms</title></circle><line x1="425.0" y1="179.78903954403515" x2="595.0" y2="189.85476514021593" stroke="#c026d3" stroke-width="2"/><line x1="595.0" x2="595.0" y1="212.90707389929776" y2="131.55009642227634" stroke="#c026d3" stroke-width="3" opacity=".3"/><circle cx="595.0" cy="189.85476514021593" r="5" fill="#c026d3" stroke="#c026d3" stroke-width="2"><title>verse_definitions 0.1.9: 6.334 ms</title></circle><line x1="595.0" y1="189.85476514021593" x2="765.0" y2="198.51652631205536" stroke="#c026d3" stroke-width="2"/><line x1="765.0" x2="765.0" y1="210.80844152675445" y2="111.43983833129167" stroke="#c026d3" stroke-width="3" opacity=".3"/><circle cx="765.0" cy="198.51652631205536" r="5" fill="#c026d3" stroke="#c026d3" stroke-width="2"><title>verse_definitions dev-main: 5.802 ms</title></circle><line x1="445" x2="465" y1="380" y2="380" stroke="#c026d3" stroke-width="3"/><text x="473" y="384">verse_definitions (5.499 ms)</text><line x1="85.0" x2="85.0" y1="224.4769232767639" y2="149.29232494640226" stroke="#059669" stroke-width="3" opacity=".3"/><circle cx="85.0" cy="203.79920155824476" r="5" fill="#059669" stroke="#059669" stroke-width="2"><title>verse_equivalent 0.1.6: 5.737 ms</title></circle><line x1="85.0" y1="203.79920155824476" x2="255.0" y2="206.1438964784474" stroke="#059669" stroke-width="2"/><line x1="255.0" x2="255.0" y1="222.93345982166875" y2="170.04920965791408" stroke="#059669" stroke-width="3" opacity=".3"/><circle cx="255.0" cy="206.1438964784474" r="5" fill="#059669" stroke="#059669" stroke-width="2"><title>verse_equivalent 0.1.7: 5.603 ms</title></circle><line x1="255.0" y1="206.1438964784474" x2="425.0" y2="159.78830947872464" stroke="#059669" stroke-width="2"/><line x1="425.0" x2="425.0" y1="202.47738513280393" y2="109.40676464668155" stroke="#059669" stroke-width="3" opacity=".3"/><circle cx="425.0" cy="159.78830947872464" r="5" fill="#059669" stroke="#059669" stroke-width="2"><title>verse_equivalent 0.1.8: 8.962 ms</title></circle><line x1="425.0" y1="159.78830947872464" x2="595.0" y2="172.9436875866917" stroke="#059669" stroke-width="2"/><line x1="595.0" x2="595.0" y1="205.43230082188052" y2="117.41271540241956" stroke="#059669" stroke-width="3" opacity=".3"/><circle cx="595.0" cy="172.9436875866917" r="5" fill="#059669" stroke="#059669" stroke-width="2"><title>verse_equivalent 0.1.9: 7.843 ms</title></circle><line x1="595.0" y1="172.9436875866917" x2="765.0" y2="192.90839450665607" stroke="#059669" stroke-width="2"/><line x1="765.0" x2="765.0" y1="209.13113326693227" y2="122.36063269741578" stroke="#059669" stroke-width="3" opacity=".3"/><circle cx="765.0" cy="192.90839450665607" r="5" fill="#059669" stroke="#059669" stroke-width="2"><title>verse_equivalent dev-main: 6.407 ms</title></circle><line x1="35" x2="55" y1="406" y2="406" stroke="#059669" stroke-width="3"/><text x="63" y="410">verse_equivalent (5.737 ms)</text><line x1="85.0" x2="85.0" y1="227.79643033845815" y2="95.50094079452552" stroke="#d97706" stroke-width="3" opacity=".3"/><circle cx="85.0" cy="203.79920155824476" r="5" fill="#d97706" stroke="#d97706" stroke-width="2"><title>paragraphs 0.1.6: 1.545 ms</title></circle><line x1="85.0" y1="203.79920155824476" x2="255.0" y2="209.44857083710838" stroke="#d97706" stroke-width="2"/><line x1="255.0" x2="255.0" y1="226.9226115370463" y2="121.74398280702738" stroke="#d97706" stroke-width="3" opacity=".3"/><circle cx="255.0" cy="209.44857083710838" r="5" fill="#d97706" stroke="#d97706" stroke-width="2"><title>paragraphs 0.1.7: 1.459 ms</title></circle><line x1="255.0" y1="209.44857083710838" x2="425.0" y2="274.9138935423881" stroke="#d97706" stroke-width="2"/><line x1="425.0" x2="425.0" y1="291.81976844990123" y2="203.844324385282" stroke="#d97706" stroke-width="3" opacity=".3"/><circle cx="425.0" cy="274.9138935423881" r="5" fill="#d97706" stroke="#d97706" stroke-width="2"><title>paragraphs 0.1.8: 0.751 ms</title></circle><line x1="425.0" y1="274.9138935423881" x2="595.0" y2="285.72839535987373" stroke="#d97706" stroke-width="2"/><line x1="595.0" x2="595.0" y1="291.617008853992" y2="190.75843365322265" stroke="#d97706" stroke-width="3" opacity=".3"/><circle cx="595.0" cy="285.72839535987373" r="5" fill="#d97706" stroke="#d97706" stroke-width="2"><title>paragraphs 0.1.9: 0.673 ms</title></circle><line x1="595.0" y1="285.72839535987373" x2="765.0" y2="276.49058144943314" stroke="#d97706" stroke-width="2"/><line x1="765.0" x2="765.0" y1="281.2861203493092" y2="226.30288305002978" stroke="#d97706" stroke-width="3" opacity=".3"/><circle cx="765.0" cy="276.49058144943314" r="5" fill="#d97706" stroke="#d97706" stroke-width="2"><title>paragraphs dev-main: 0.739 ms</title></circle><line x1="445" x2="465" y1="406" y2="406" stroke="#d97706" stroke-width="3"/><text x="473" y="410">paragraphs (1.545 ms)</text><line x1="85.0" x2="85.0" y1="220.65928127452443" y2="174.56657035203236" stroke="#dc2626" stroke-width="3" opacity=".3"/><circle cx="85.0" cy="203.79920155824476" r="5" fill="#dc2626" stroke="#dc2626" stroke-width="2"><title>mixed_document 0.1.6: 23.946 ms</title></circle><line x1="85.0" y1="203.79920155824476" x2="255.0" y2="194.84471308716445" stroke="#dc2626" stroke-width="2"/><line x1="255.0" x2="255.0" y1="215.17063123424686" y2="171.90338074269937" stroke="#dc2626" stroke-width="3" opacity=".3"/><circle cx="255.0" cy="194.84471308716445" r="5" fill="#dc2626" stroke="#dc2626" stroke-width="2"><title>mixed_document 0.1.7: 26.220 ms</title></circle><line x1="255.0" y1="194.84471308716445" x2="425.0" y2="197.49241710882015" stroke="#dc2626" stroke-width="2"/><line x1="425.0" x2="425.0" y1="219.68676527215797" y2="119.42850970705055" stroke="#dc2626" stroke-width="3" opacity=".3"/><circle cx="425.0" cy="197.49241710882015" r="5" fill="#dc2626" stroke="#dc2626" stroke-width="2"><title>mixed_document 0.1.8: 25.526 ms</title></circle><line x1="425.0" y1="197.49241710882015" x2="595.0" y2="192.89237740296835" stroke="#dc2626" stroke-width="2"/><line x1="595.0" x2="595.0" y1="213.0808319125888" y2="108.18861561644874" stroke="#dc2626" stroke-width="3" opacity=".3"/><circle cx="595.0" cy="192.89237740296835" r="5" fill="#dc2626" stroke="#dc2626" stroke-width="2"><title>mixed_document 0.1.9: 26.744 ms</title></circle><line x1="595.0" y1="192.89237740296835" x2="765.0" y2="224.25061708250638" stroke="#dc2626" stroke-width="2"/><line x1="765.0" x2="765.0" y1="235.55418992072418" y2="204.1859517730066" stroke="#dc2626" stroke-width="3" opacity=".3"/><circle cx="765.0" cy="224.25061708250638" r="5" fill="#dc2626" stroke="#dc2626" stroke-width="2"><title>mixed_document dev-main: 19.464 ms</title></circle><line x1="35" x2="55" y1="432" y2="432" stroke="#dc2626" stroke-width="3"/><text x="63" y="436">mixed_document (23.946 ms)</text><text x="35" y="530">Whiskers show sample ranges. Hollow points and gaps mark output changes.</text></svg>