<svg xmlns="http://www.w3.org/2000/svg" viewBox="0 0 850 560" role="img" aria-labelledby="title desc"><title id="title">js engine version history</title><desc id="desc">Median elapsed time relative to the oldest tag, log scale. Lower is faster. Lines connect identical output only.</desc><style>text{font:13px system-ui;fill:#172033}.bg{fill:#fff}.grid{stroke:#cbd5e1}@media(prefers-color-scheme:dark){text{fill:#edf2f7}.bg{fill:#152033}.grid{stroke:#475569}}</style><rect class="bg" width="850" height="560"/><text x="35" y="28" font-weight="bold">js · n=1024 · time / oldest tag (lower is faster)</text><text x="35" y="49">Each case starts at its own 1× baseline. Equal ratios do not mean equal milliseconds.</text><line class="grid" x1="85" x2="765" y1="310.0" y2="310.0"/><text x="25" y="315.0">0.29×</text><line class="grid" x1="85" x2="765" y1="250.0" y2="250.0"/><text x="25" y="255.0">0.56×</text><line class="grid" x1="85" x2="765" y1="190.0" y2="190.0"/><text x="25" y="195.0">1.1×</text><line class="grid" x1="85" x2="765" y1="130.0" y2="130.0"/><text x="25" y="135.0">2×</text><line class="grid" x1="85" x2="765" y1="70.0" y2="70.0"/><text x="25" y="75.0">3.9×</text><text x="85.0" y="337" text-anchor="middle">0.1.6</text><text x="255.0" y="337" text-anchor="middle">0.1.7</text><text x="425.0" y="337" text-anchor="middle">0.1.8</text><text x="595.0" y="337" text-anchor="middle">0.1.9</text><text x="765.0" y="337" text-anchor="middle">dev-main</text><line x1="85.0" x2="85.0" y1="215.87768817647952" y2="132.1600774707593" stroke="#2563eb" stroke-width="3" opacity=".3"/><circle cx="85.0" cy="195.93885341325" r="5" fill="#2563eb" stroke="#2563eb" stroke-width="2"><title>quoted_fences 0.1.6: 3.366 ms</title></circle><line x1="85.0" y1="195.93885341325" x2="255.0" y2="199.00483005913907" stroke="#2563eb" stroke-width="2"/><line x1="255.0" x2="255.0" y1="216.26607774691374" y2="87.11219117559631" stroke="#2563eb" stroke-width="3" opacity=".3"/><circle cx="255.0" cy="199.00483005913907" r="5" fill="#2563eb" stroke="#2563eb" stroke-width="2"><title>quoted_fences 0.1.7: 3.257 ms</title></circle><line x1="255.0" y1="199.00483005913907" x2="425.0" y2="220.51197343789556" stroke="#2563eb" stroke-width="2"/><line x1="425.0" x2="425.0" y1="242.29116985189953" y2="175.98112308361533" stroke="#2563eb" stroke-width="3" opacity=".3"/><circle cx="425.0" cy="220.51197343789556" r="5" fill="#2563eb" stroke="#2563eb" stroke-width="2"><title>quoted_fences 0.1.8: 2.584 ms</title></circle><line x1="425.0" y1="220.51197343789556" x2="595.0" y2="227.33032857655365" stroke="#2563eb" stroke-width="2"/><line x1="595.0" x2="595.0" y1="244.4417266762053" y2="144.60831312336643" stroke="#2563eb" stroke-width="3" opacity=".3"/><circle cx="595.0" cy="227.33032857655365" r="5" fill="#2563eb" stroke="#2563eb" stroke-width="2"><title>quoted_fences 0.1.9: 2.401 ms</title></circle><line x1="595.0" y1="227.33032857655365" x2="765.0" y2="261.33879607720814" stroke="#2563eb" stroke-width="2"/><line x1="765.0" x2="765.0" y1="266.7964464207326" y2="209.52521030339977" stroke="#2563eb" stroke-width="3" opacity=".3"/><circle cx="765.0" cy="261.33879607720814" r="5" fill="#2563eb" stroke="#2563eb" stroke-width="2"><title>quoted_fences dev-main: 1.665 ms</title></circle><line x1="35" x2="55" y1="380" y2="380" stroke="#2563eb" stroke-width="3"/><text x="63" y="384">quoted_fences (3.366 ms)</text><line x1="85.0" x2="85.0" y1="219.28071945019545" y2="136.3206927656193" stroke="#c026d3" stroke-width="3" opacity=".3"/><circle cx="85.0" cy="195.93885341325" r="5" fill="#c026d3" stroke="#c026d3" stroke-width="2"><title>verse_definitions 0.1.6: 5.499 ms</title></circle><line x1="85.0" y1="195.93885341325" x2="255.0" y2="204.1168587306697" stroke="#c026d3" stroke-width="2"/><line x1="255.0" x2="255.0" y1="226.45497284092704" y2="158.2677487094036" stroke="#c026d3" stroke-width="3" opacity=".3"/><circle cx="255.0" cy="204.1168587306697" r="5" fill="#c026d3" stroke="#c026d3" stroke-width="2"><title>verse_definitions 0.1.7: 5.036 ms</title></circle><line x1="255.0" y1="204.1168587306697" x2="425.0" y2="173.33922472249424" stroke="#c026d3" stroke-width="2"/><line x1="425.0" x2="425.0" y1="201.5044071200427" y2="121.89371270830955" stroke="#c026d3" stroke-width="3" opacity=".3"/><circle cx="425.0" cy="173.33922472249424" r="5" fill="#c026d3" stroke="#c026d3" stroke-width="2"><title>verse_definitions 0.1.8: 7.014 ms</title></circle><line x1="425.0" y1="173.33922472249424" x2="595.0" y2="182.81361564255945" stroke="#c026d3" stroke-width="2"/><line x1="595.0" x2="595.0" y1="204.51166241590425" y2="127.93419153941736" stroke="#c026d3" stroke-width="3" opacity=".3"/><circle cx="595.0" cy="182.81361564255945" r="5" fill="#c026d3" stroke="#c026d3" stroke-width="2"><title>verse_definitions 0.1.9: 6.334 ms</title></circle><line x1="595.0" y1="182.81361564255945" x2="765.0" y2="213.87296940487272" stroke="#c026d3" stroke-width="2"/><line x1="765.0" x2="765.0" y1="229.80028141685145" y2="188.7256583436488" stroke="#c026d3" stroke-width="3" opacity=".3"/><circle cx="765.0" cy="213.87296940487272" r="5" fill="#c026d3" stroke="#c026d3" stroke-width="2"><title>verse_definitions dev-main: 4.534 ms</title></circle><line x1="445" x2="465" y1="380" y2="380" stroke="#c026d3" stroke-width="3"/><text x="473" y="384">verse_definitions (5.499 ms)</text><line x1="85.0" x2="85.0" y1="215.40181383528915" y2="144.63411120486916" stroke="#059669" stroke-width="3" opacity=".3"/><circle cx="85.0" cy="195.93885341325" r="5" fill="#059669" stroke="#059669" stroke-width="2"><title>verse_equivalent 0.1.6: 5.737 ms</title></circle><line x1="85.0" y1="195.93885341325" x2="255.0" y2="198.14580372696804" stroke="#059669" stroke-width="2"/><line x1="255.0" x2="255.0" y1="213.9490247636345" y2="164.17158400406865" stroke="#059669" stroke-width="3" opacity=".3"/><circle cx="255.0" cy="198.14580372696804" r="5" fill="#059669" stroke="#059669" stroke-width="2"><title>verse_equivalent 0.1.7: 5.603 ms</title></circle><line x1="255.0" y1="198.14580372696804" x2="425.0" y2="154.5134844899815" stroke="#059669" stroke-width="2"/><line x1="425.0" x2="425.0" y1="194.69469019624938" y2="107.09172176314127" stroke="#059669" stroke-width="3" opacity=".3"/><circle cx="425.0" cy="154.5134844899815" r="5" fill="#059669" stroke="#059669" stroke-width="2"><title>verse_equivalent 0.1.8: 8.962 ms</title></circle><line x1="425.0" y1="154.5134844899815" x2="595.0" y2="166.89601903308883" stroke="#059669" stroke-width="2"/><line x1="595.0" x2="595.0" y1="197.4760124274821" y2="114.62734415040694" stroke="#059669" stroke-width="3" opacity=".3"/><circle cx="595.0" cy="166.89601903308883" r="5" fill="#059669" stroke="#059669" stroke-width="2"><title>verse_equivalent 0.1.9: 7.843 ms</title></circle><line x1="595.0" y1="166.89601903308883" x2="765.0" y2="208.49982717156803" stroke="#059669" stroke-width="2"/><line x1="765.0" x2="765.0" y1="224.66805906195054" y2="170.7345908060494" stroke="#059669" stroke-width="3" opacity=".3"/><circle cx="765.0" cy="208.49982717156803" r="5" fill="#059669" stroke="#059669" stroke-width="2"><title>verse_equivalent dev-main: 5.012 ms</title></circle><line x1="35" x2="55" y1="406" y2="406" stroke="#059669" stroke-width="3"/><text x="63" y="410">verse_equivalent (5.737 ms)</text><line x1="85.0" x2="85.0" y1="218.5263086631972" y2="94.00282817251104" stroke="#d97706" stroke-width="3" opacity=".3"/><circle cx="85.0" cy="195.93885341325" r="5" fill="#d97706" stroke="#d97706" stroke-width="2"><title>paragraphs 0.1.6: 1.545 ms</title></circle><line x1="85.0" y1="195.93885341325" x2="255.0" y2="201.25633723379735" stroke="#d97706" stroke-width="2"/><line x1="255.0" x2="255.0" y1="217.70382439827546" y2="118.70416108511074" stroke="#d97706" stroke-width="3" opacity=".3"/><circle cx="255.0" cy="201.25633723379735" r="5" fill="#d97706" stroke="#d97706" stroke-width="2"><title>paragraphs 0.1.7: 1.459 ms</title></circle><line x1="255.0" y1="201.25633723379735" x2="425.0" y2="262.8757458985219" stroke="#d97706" stroke-width="2"/><line x1="425.0" x2="425.0" y1="278.78844550363283" y2="195.981325393902" stroke="#d97706" stroke-width="3" opacity=".3"/><circle cx="425.0" cy="262.8757458985219" r="5" fill="#d97706" stroke="#d97706" stroke-width="2"><title>paragraphs 0.1.8: 0.751 ms</title></circle><line x1="425.0" y1="262.8757458985219" x2="595.0" y2="273.05492442326647" stroke="#d97706" stroke-width="2"/><line x1="595.0" x2="595.0" y1="278.5975974960965" y2="183.66419602770605" stroke="#d97706" stroke-width="3" opacity=".3"/><circle cx="595.0" cy="273.05492442326647" r="5" fill="#d97706" stroke="#d97706" stroke-width="2"><title>paragraphs 0.1.9: 0.673 ms</title></circle><line x1="595.0" y1="273.05492442326647" x2="765.0" y2="288.04558453493524" stroke="#d97706" stroke-width="2"/><line x1="765.0" x2="765.0" y1="292.8878088244037" y2="259.1410071082796" stroke="#d97706" stroke-width="3" opacity=".3"/><circle cx="765.0" cy="288.04558453493524" r="5" fill="#d97706" stroke="#d97706" stroke-width="2"><title>paragraphs dev-main: 0.573 ms</title></circle><line x1="445" x2="465" y1="406" y2="406" stroke="#d97706" stroke-width="3"/><text x="473" y="410">paragraphs (1.545 ms)</text><line x1="85.0" x2="85.0" y1="211.80844817312556" y2="168.423561741198" stroke="#dc2626" stroke-width="3" opacity=".3"/><circle cx="85.0" cy="195.93885341325" r="5" fill="#dc2626" stroke="#dc2626" stroke-width="2"><title>mixed_document 0.1.6: 23.946 ms</title></circle><line x1="85.0" y1="195.93885341325" x2="255.0" y2="187.51041738510892" stroke="#dc2626" stroke-width="2"/><line x1="255.0" x2="255.0" y1="206.64224176225815" y2="165.9168274564237" stroke="#dc2626" stroke-width="3" opacity=".3"/><circle cx="255.0" cy="187.51041738510892" r="5" fill="#dc2626" stroke="#dc2626" stroke-width="2"><title>mixed_document 0.1.7: 26.220 ms</title></circle><line x1="255.0" y1="187.51041738510892" x2="425.0" y2="190.00257581940133" stroke="#dc2626" stroke-width="2"/><line x1="425.0" x2="425.0" y1="210.8930649059784" y2="116.5247158872007" stroke="#dc2626" stroke-width="3" opacity=".3"/><circle cx="425.0" cy="190.00257581940133" r="5" fill="#dc2626" stroke="#dc2626" stroke-width="2"><title>mixed_document 0.1.8: 25.526 ms</title></circle><line x1="425.0" y1="190.00257581940133" x2="595.0" y2="185.67277624314443" stroke="#dc2626" stroke-width="2"/><line x1="595.0" x2="595.0" y1="204.6752126068649" y2="105.94513575689217" stroke="#dc2626" stroke-width="3" opacity=".3"/><circle cx="595.0" cy="185.67277624314443" r="5" fill="#dc2626" stroke="#dc2626" stroke-width="2"><title>mixed_document 0.1.9: 26.744 ms</title></circle><line x1="595.0" y1="185.67277624314443" x2="765.0" y2="235.95855458704537" stroke="#dc2626" stroke-width="2"/><line x1="765.0" x2="765.0" y1="256.4259845111188" y2="194.32195427920016" stroke="#dc2626" stroke-width="3" opacity=".3"/><circle cx="765.0" cy="235.95855458704537" r="5" fill="#dc2626" stroke="#dc2626" stroke-width="2"><title>mixed_document dev-main: 15.565 ms</title></circle><line x1="35" x2="55" y1="432" y2="432" stroke="#dc2626" stroke-width="3"/><text x="63" y="436">mixed_document (23.946 ms)</text><text x="35" y="530">Whiskers show sample ranges. Hollow points and gaps mark output changes.</text></svg>