<svg xmlns="http://www.w3.org/2000/svg" width="1000" height="715" viewBox="0 0 1000 715" role="img" aria-labelledby="title desc">
<title id="title">Same-language render throughput</title>
<desc id="desc">Each panel is normalized visually to its fastest engine; labels show absolute MB/s.</desc>
<style>text{font-family:ui-sans-serif,system-ui,sans-serif;fill:#24292f}.title{font-size:25px;font-weight:700}.sub{font-size:14px;fill:#57606a}.group{font-size:19px;font-weight:650}.label{font-size:14px}.value{font-size:13px;font-weight:650;fill:#24292f}.track{fill:#eaeef2}@media(prefers-color-scheme:dark){text,.value{fill:#f0f6fc}.sub{fill:#8c959f}.track{fill:#30363d}}</style>
<text id="chart-title" class="title" x="24" y="36">Same-language render throughput</text>
<text class="sub" x="24" y="62">Each panel is normalized visually to its fastest engine; labels show absolute MB/s.</text>
<text class="group" x="24" y="105">Rust</text>
<text class="label" x="233" y="146" text-anchor="end">carve-rs</text>
<rect class="track" x="245" y="133" width="650" height="20" rx="4"/>
<rect x="245" y="133" width="40.4" height="20" rx="4" fill="#7357d9"/>
<text class="value" x="293.4456945045435" y="148">7.19 MB/s</text>
<text class="label" x="233" y="180" text-anchor="end">jotdown</text>
<rect class="track" x="245" y="167" width="650" height="20" rx="4"/>
<rect x="245" y="167" width="202.4" height="20" rx="4" fill="#24a37a"/>
<text class="value" x="455.39723063608824" y="182">35.98 MB/s</text>
<text class="label" x="233" y="214" text-anchor="end">comrak</text>
<rect class="track" x="245" y="201" width="650" height="20" rx="4"/>
<rect x="245" y="201" width="247.1" height="20" rx="4" fill="#e58b25"/>
<text class="value" x="500.11813067935964" y="216">43.93 MB/s</text>
<text class="label" x="233" y="248" text-anchor="end">pulldown-cmark</text>
<rect class="track" x="245" y="235" width="650" height="20" rx="4"/>
<rect x="245" y="235" width="650.0" height="20" rx="4" fill="#3f88c5"/>
<text class="value" x="825" y="250">115.55 MB/s</text>
<text class="group" x="24" y="320">JavaScript</text>
<text class="label" x="233" y="361" text-anchor="end">carve-js</text>
<rect class="track" x="245" y="348" width="650" height="20" rx="4"/>
<rect x="245" y="348" width="208.9" height="20" rx="4" fill="#7357d9"/>
<text class="value" x="461.8868940754039" y="363">1.79 MB/s</text>
<text class="label" x="233" y="395" text-anchor="end">djot.js</text>
<rect class="track" x="245" y="382" width="650" height="20" rx="4"/>
<rect x="245" y="382" width="650.0" height="20" rx="4" fill="#24a37a"/>
<text class="value" x="825" y="397">5.57 MB/s</text>
<text class="label" x="233" y="429" text-anchor="end">markdown-it</text>
<rect class="track" x="245" y="416" width="650" height="20" rx="4"/>
<rect x="245" y="416" width="605.7" height="20" rx="4" fill="#e58b25"/>
<text class="value" x="825" y="431">5.19 MB/s</text>
<text class="group" x="24" y="501">PHP</text>
<text class="label" x="233" y="542" text-anchor="end">carve-php</text>
<rect class="track" x="245" y="529" width="650" height="20" rx="4"/>
<rect x="245" y="529" width="100.1" height="20" rx="4" fill="#7357d9"/>
<text class="value" x="353.1453488372093" y="544">0.53 MB/s</text>
<text class="label" x="233" y="576" text-anchor="end">djot-php</text>
<rect class="track" x="245" y="563" width="650" height="20" rx="4"/>
<rect x="245" y="563" width="650.0" height="20" rx="4" fill="#24a37a"/>
<text class="value" x="825" y="578">3.44 MB/s</text>
<text class="label" x="233" y="610" text-anchor="end">league/commonmark-gfm</text>
<rect class="track" x="245" y="597" width="650" height="20" rx="4"/>
<rect x="245" y="597" width="306.1" height="20" rx="4" fill="#e58b25"/>
<text class="value" x="559.1046511627908" y="612">1.62 MB/s</text>
</svg>
