<svg xmlns="http://www.w3.org/2000/svg" width="1000" height="727" viewBox="0 0 1000 727" role="img" aria-labelledby="title desc">
<title id="title">Core route throughput, all engines on one scale</title>
<desc id="desc">Default configuration, no opt-in extensions. Carve purple, Djot peers green, CommonMark peers orange.</desc>
<style>text{font-family:ui-sans-serif,system-ui,sans-serif;fill:#24292f}.title{font-size:25px;font-weight:700}.sub{font-size:14px;fill:#57606a}.group{font-size:19px;font-weight:650}.label{font-size:14px}.value{font-size:13px;font-weight:650;fill:#24292f}.track{fill:#eaeef2}@media(prefers-color-scheme:dark){text,.value{fill:#f0f6fc}.sub{fill:#8c959f}.track{fill:#30363d}}</style>
<text id="chart-title" class="title" x="24" y="36">Core route throughput, all engines on one scale</text>
<text class="sub" x="24" y="62">Default configuration, no opt-in extensions. Carve purple, Djot peers green, CommonMark peers orange.</text>
<text class="group" x="24" y="105">Every measured engine</text>
<text class="label" x="233" y="146" text-anchor="end">pulldown-cmark (Rust)</text>
<rect class="track" x="245" y="133" width="650" height="20" rx="4"/>
<rect x="245" y="133" width="650.0" height="20" rx="4" fill="#e58b25"/>
<text class="value" x="825" y="148">115.62 MB/s</text>
<text class="label" x="233" y="180" text-anchor="end">carve-rs (Rust)</text>
<rect class="track" x="245" y="167" width="650" height="20" rx="4"/>
<rect x="245" y="167" width="587.3" height="20" rx="4" fill="#4c31a8"/>
<text class="value" x="825" y="182">104.46 MB/s</text>
<text class="label" x="233" y="214" text-anchor="end">jotdown (Rust)</text>
<rect class="track" x="245" y="201" width="650" height="20" rx="4"/>
<rect x="245" y="201" width="239.2" height="20" rx="4" fill="#24a37a"/>
<text class="value" x="492.154125583809" y="216">42.54 MB/s</text>
<text class="label" x="233" y="248" text-anchor="end">comrak (Rust)</text>
<rect class="track" x="245" y="235" width="650" height="20" rx="4"/>
<rect x="245" y="235" width="213.2" height="20" rx="4" fill="#e58b25"/>
<text class="value" x="466.23732918180247" y="250">37.93 MB/s</text>
<text class="label" x="233" y="282" text-anchor="end">djot-php (PHP)</text>
<rect class="track" x="245" y="269" width="650" height="20" rx="4"/>
<rect x="245" y="269" width="100.2" height="20" rx="4" fill="#24a37a"/>
<text class="value" x="353.1816294758692" y="284">17.82 MB/s</text>
<text class="label" x="233" y="316" text-anchor="end">carve-php (PHP)</text>
<rect class="track" x="245" y="303" width="650" height="20" rx="4"/>
<rect x="245" y="303" width="88.2" height="20" rx="4" fill="#7357d9"/>
<text class="value" x="341.2070576024909" y="318">15.69 MB/s</text>
<text class="label" x="233" y="350" text-anchor="end">carve-js (JavaScript)</text>
<rect class="track" x="245" y="337" width="650" height="20" rx="4"/>
<rect x="245" y="337" width="56.1" height="20" rx="4" fill="#a08ceb"/>
<text class="value" x="309.1062099982702" y="352">9.98 MB/s</text>
<text class="label" x="233" y="384" text-anchor="end">djot.js (JavaScript)</text>
<rect class="track" x="245" y="371" width="650" height="20" rx="4"/>
<rect x="245" y="371" width="32.5" height="20" rx="4" fill="#24a37a"/>
<text class="value" x="285.4943781352707" y="386">5.78 MB/s</text>
<text class="label" x="233" y="418" text-anchor="end">markdown-it (JavaScript)</text>
<rect class="track" x="245" y="405" width="650" height="20" rx="4"/>
<rect x="245" y="405" width="32.0" height="20" rx="4" fill="#e58b25"/>
<text class="value" x="284.988410309635" y="420">5.69 MB/s</text>
<text class="label" x="233" y="452" text-anchor="end">league/commonmark-gfm (PHP)</text>
<rect class="track" x="245" y="439" width="650" height="20" rx="4"/>
<rect x="245" y="439" width="8.0" height="20" rx="4" fill="#e58b25"/>
<text class="value" x="261.0392665628784" y="454">1.43 MB/s</text>
<text class="group" x="24" y="524">Carve engines only</text>
<text class="label" x="233" y="565" text-anchor="end">carve-rs (Rust)</text>
<rect class="track" x="245" y="552" width="650" height="20" rx="4"/>
<rect x="245" y="552" width="650.0" height="20" rx="4" fill="#4c31a8"/>
<text class="value" x="825" y="567">104.46 MB/s</text>
<text class="label" x="233" y="599" text-anchor="end">carve-php (PHP)</text>
<rect class="track" x="245" y="586" width="650" height="20" rx="4"/>
<rect x="245" y="586" width="97.6" height="20" rx="4" fill="#7357d9"/>
<text class="value" x="350.63067202757037" y="601">15.69 MB/s</text>
<text class="label" x="233" y="633" text-anchor="end">carve-js (JavaScript)</text>
<rect class="track" x="245" y="620" width="650" height="20" rx="4"/>
<rect x="245" y="620" width="62.1" height="20" rx="4" fill="#a08ceb"/>
<text class="value" x="315.1003254834386" y="635">9.98 MB/s</text>
</svg>
