<svg xmlns="http://www.w3.org/2000/svg" width="1000" height="761" viewBox="0 0 1000 761" role="img" aria-labelledby="title desc">
<title id="title">Core route throughput, all measured engines</title>
<desc id="desc">Carve dev-main in every panel: JS a7c80d3, PHP 49c235d, Rust ae44de3. Median timing; compare within each workload.</desc>
<style>text{font-family:ui-sans-serif,system-ui,sans-serif;fill:#24292f}.title{font-size:25px;font-weight:700}.sub{font-size:14px;fill:#57606a}.group{font-size:19px;font-weight:650}.label{font-size:14px}.value{font-size:13px;font-weight:650;fill:#24292f}.track{fill:#eaeef2}@media(prefers-color-scheme:dark){text,.value{fill:#f0f6fc}.sub{fill:#8c959f}.track{fill:#30363d}}</style>
<text id="chart-title" class="title" x="24" y="36">Core route throughput, all measured engines</text>
<text class="sub" x="24" y="62">Carve dev-main in every panel: JS a7c80d3, PHP 49c235d, Rust ae44de3. Median timing; compare within each workload.</text>
<text class="group" x="24" y="105">With pipe tables · 18 points (2026-10-05, Carve dev-main)</text>
<text class="label" x="298" y="146" text-anchor="end">carve-rs (Rust, Carve)</text>
<rect class="track" x="310" y="133" width="585" height="20" rx="4"/>
<rect x="310" y="133" width="585.0" height="20" rx="4" fill="#4c31a8"/>
<text class="value" x="825" y="148">129.12 MB/s</text>
<text class="label" x="298" y="180" text-anchor="end">pulldown-cmark (Rust, Markdown)</text>
<rect class="track" x="310" y="167" width="585" height="20" rx="4"/>
<rect x="310" y="167" width="583.8" height="20" rx="4" fill="#e58b25"/>
<text class="value" x="825" y="182">128.85 MB/s</text>
<text class="label" x="298" y="214" text-anchor="end">jotdown (Rust, Djot)</text>
<rect class="track" x="310" y="201" width="585" height="20" rx="4"/>
<rect x="310" y="201" width="204.5" height="20" rx="4" fill="#24a37a"/>
<text class="value" x="522.5479521847338" y="216">45.15 MB/s</text>
<text class="label" x="298" y="248" text-anchor="end">comrak (Rust, Markdown)</text>
<rect class="track" x="310" y="235" width="585" height="20" rx="4"/>
<rect x="310" y="235" width="191.0" height="20" rx="4" fill="#e58b25"/>
<text class="value" x="509.029806006336" y="250">42.16 MB/s</text>
<text class="label" x="298" y="282" text-anchor="end">djot-php (PHP, Djot)</text>
<rect class="track" x="310" y="269" width="585" height="20" rx="4"/>
<rect x="310" y="269" width="86.6" height="20" rx="4" fill="#24a37a"/>
<text class="value" x="404.5559134065015" y="284">19.10 MB/s</text>
<text class="label" x="298" y="316" text-anchor="end">carve-php (PHP, Carve)</text>
<rect class="track" x="310" y="303" width="585" height="20" rx="4"/>
<rect x="310" y="303" width="75.1" height="20" rx="4" fill="#7357d9"/>
<text class="value" x="393.1401625017024" y="318">16.58 MB/s</text>
<text class="label" x="298" y="350" text-anchor="end">carve-js (JS, Carve)</text>
<rect class="track" x="310" y="337" width="585" height="20" rx="4"/>
<rect x="310" y="337" width="72.3" height="20" rx="4" fill="#a08ceb"/>
<text class="value" x="390.3397683944488" y="352">15.97 MB/s</text>
<text class="label" x="298" y="384" text-anchor="end">markdown-it (JS, Markdown)</text>
<rect class="track" x="310" y="371" width="585" height="20" rx="4"/>
<rect x="310" y="371" width="22.8" height="20" rx="4" fill="#e58b25"/>
<text class="value" x="340.83135204275067" y="386">5.04 MB/s</text>
<text class="label" x="298" y="418" text-anchor="end">djot.js (JS, Djot)</text>
<rect class="track" x="310" y="405" width="585" height="20" rx="4"/>
<rect x="310" y="405" width="21.3" height="20" rx="4" fill="#24a37a"/>
<text class="value" x="339.2986356424912" y="420">4.70 MB/s</text>
<text class="label" x="298" y="452" text-anchor="end">league/commonmark-gfm (PHP, Markdown)</text>
<rect class="track" x="310" y="439" width="585" height="20" rx="4"/>
<rect x="310" y="439" width="6.8" height="20" rx="4" fill="#e58b25"/>
<text class="value" x="324.75787947590203" y="454">1.49 MB/s</text>
<text class="group" x="24" y="524">JavaScript without pipe tables · 14 points (2026-10-05, Carve main a7c80d3)</text>
<text class="label" x="298" y="565" text-anchor="end">carve-js (JS, Carve)</text>
<rect class="track" x="310" y="552" width="585" height="20" rx="4"/>
<rect x="310" y="552" width="585.0" height="20" rx="4" fill="#a08ceb"/>
<text class="value" x="825" y="567">20.15 MB/s</text>
<text class="label" x="298" y="599" text-anchor="end">commonmark.js (JS, Markdown)</text>
<rect class="track" x="310" y="586" width="585" height="20" rx="4"/>
<rect x="310" y="586" width="445.2" height="20" rx="4" fill="#e58b25"/>
<text class="value" x="763.2182998518219" y="601">15.33 MB/s</text>
<text class="label" x="298" y="633" text-anchor="end">markdown-it (JS, Markdown)</text>
<rect class="track" x="310" y="620" width="585" height="20" rx="4"/>
<rect x="310" y="620" width="228.9" height="20" rx="4" fill="#e58b25"/>
<text class="value" x="546.9467429646767" y="635">7.89 MB/s</text>
<text class="label" x="298" y="667" text-anchor="end">djot.js (JS, Djot)</text>
<rect class="track" x="310" y="654" width="585" height="20" rx="4"/>
<rect x="310" y="654" width="161.0" height="20" rx="4" fill="#24a37a"/>
<text class="value" x="479.0435522117891" y="669">5.55 MB/s</text>
</svg>
