<svg xmlns="http://www.w3.org/2000/svg" width="1000" height="761" viewBox="0 0 1000 761" role="img" aria-labelledby="title desc">
<title id="title">Core route throughput, all measured engines</title>
<desc id="desc">Carve dev-main in every panel: JS e45535d, PHP 9529fe7, Rust 4dfd860. Median timing; compare within each workload.</desc>
<style>text{font-family:ui-sans-serif,system-ui,sans-serif;fill:#24292f}.title{font-size:25px;font-weight:700}.sub{font-size:14px;fill:#57606a}.group{font-size:19px;font-weight:650}.label{font-size:14px}.value{font-size:13px;font-weight:650;fill:#24292f}.track{fill:#eaeef2}@media(prefers-color-scheme:dark){text,.value{fill:#f0f6fc}.sub{fill:#8c959f}.track{fill:#30363d}}</style>
<text id="chart-title" class="title" x="24" y="36">Core route throughput, all measured engines</text>
<text class="sub" x="24" y="62">Carve dev-main in every panel: JS e45535d, PHP 9529fe7, Rust 4dfd860. Median timing; compare within each workload.</text>
<text class="group" x="24" y="105">With pipe tables · 18 points (2026-10-02, Carve dev-main)</text>
<text class="label" x="298" y="146" text-anchor="end">pulldown-cmark (Rust, Markdown)</text>
<rect class="track" x="310" y="133" width="585" height="20" rx="4"/>
<rect x="310" y="133" width="585.0" height="20" rx="4" fill="#e58b25"/>
<text class="value" x="825" y="148">130.44 MB/s</text>
<text class="label" x="298" y="180" text-anchor="end">carve-rs (Rust, Carve)</text>
<rect class="track" x="310" y="167" width="585" height="20" rx="4"/>
<rect x="310" y="167" width="560.4" height="20" rx="4" fill="#4c31a8"/>
<text class="value" x="825" y="182">124.94 MB/s</text>
<text class="label" x="298" y="214" text-anchor="end">jotdown (Rust, Djot)</text>
<rect class="track" x="310" y="201" width="585" height="20" rx="4"/>
<rect x="310" y="201" width="206.7" height="20" rx="4" fill="#24a37a"/>
<text class="value" x="524.6919389555212" y="216">46.09 MB/s</text>
<text class="label" x="298" y="248" text-anchor="end">comrak (Rust, Markdown)</text>
<rect class="track" x="310" y="235" width="585" height="20" rx="4"/>
<rect x="310" y="235" width="189.9" height="20" rx="4" fill="#e58b25"/>
<text class="value" x="507.87623718062355" y="250">42.34 MB/s</text>
<text class="label" x="298" y="282" text-anchor="end">djot-php (PHP, Djot)</text>
<rect class="track" x="310" y="269" width="585" height="20" rx="4"/>
<rect x="310" y="269" width="88.6" height="20" rx="4" fill="#24a37a"/>
<text class="value" x="406.6015983191437" y="284">19.76 MB/s</text>
<text class="label" x="298" y="316" text-anchor="end">carve-php (PHP, Carve)</text>
<rect class="track" x="310" y="303" width="585" height="20" rx="4"/>
<rect x="310" y="303" width="76.9" height="20" rx="4" fill="#7357d9"/>
<text class="value" x="394.9060037046928" y="318">17.15 MB/s</text>
<text class="label" x="298" y="350" text-anchor="end">carve-js (JS, Carve)</text>
<rect class="track" x="310" y="337" width="585" height="20" rx="4"/>
<rect x="310" y="337" width="73.1" height="20" rx="4" fill="#a08ceb"/>
<text class="value" x="391.0805871577344" y="352">16.29 MB/s</text>
<text class="label" x="298" y="384" text-anchor="end">markdown-it (JS, Markdown)</text>
<rect class="track" x="310" y="371" width="585" height="20" rx="4"/>
<rect x="310" y="371" width="33.0" height="20" rx="4" fill="#e58b25"/>
<text class="value" x="350.9701006871319" y="386">7.35 MB/s</text>
<text class="label" x="298" y="418" text-anchor="end">djot.js (JS, Djot)</text>
<rect class="track" x="310" y="405" width="585" height="20" rx="4"/>
<rect x="310" y="405" width="25.7" height="20" rx="4" fill="#24a37a"/>
<text class="value" x="343.72734943651017" y="420">5.74 MB/s</text>
<text class="label" x="298" y="452" text-anchor="end">league/commonmark-gfm (PHP, Markdown)</text>
<rect class="track" x="310" y="439" width="585" height="20" rx="4"/>
<rect x="310" y="439" width="6.8" height="20" rx="4" fill="#e58b25"/>
<text class="value" x="324.81445637273237" y="454">1.52 MB/s</text>
<text class="group" x="24" y="524">JavaScript without pipe tables · 14 points (2026-10-02, Carve main e45535d)</text>
<text class="label" x="298" y="565" text-anchor="end">carve-js (JS, Carve)</text>
<rect class="track" x="310" y="552" width="585" height="20" rx="4"/>
<rect x="310" y="552" width="585.0" height="20" rx="4" fill="#a08ceb"/>
<text class="value" x="825" y="567">21.77 MB/s</text>
<text class="label" x="298" y="599" text-anchor="end">commonmark.js (JS, Markdown)</text>
<rect class="track" x="310" y="586" width="585" height="20" rx="4"/>
<rect x="310" y="586" width="536.5" height="20" rx="4" fill="#e58b25"/>
<text class="value" x="825" y="601">19.96 MB/s</text>
<text class="label" x="298" y="633" text-anchor="end">markdown-it (JS, Markdown)</text>
<rect class="track" x="310" y="620" width="585" height="20" rx="4"/>
<rect x="310" y="620" width="251.4" height="20" rx="4" fill="#e58b25"/>
<text class="value" x="569.4164729421326" y="635">9.36 MB/s</text>
<text class="label" x="298" y="667" text-anchor="end">djot.js (JS, Djot)</text>
<rect class="track" x="310" y="654" width="585" height="20" rx="4"/>
<rect x="310" y="654" width="238.0" height="20" rx="4" fill="#24a37a"/>
<text class="value" x="556.043835127484" y="669">8.86 MB/s</text>
</svg>
