<svg xmlns="http://www.w3.org/2000/svg" width="1000" height="681" viewBox="0 0 1000 681" role="img" aria-labelledby="title desc">
<title id="title">Carve engines on the full spec corpus</title>
<desc id="desc">Each document-size panel is normalized visually to its fastest engine; labels show absolute MB/s.</desc>
<style>text{font-family:ui-sans-serif,system-ui,sans-serif;fill:#24292f}.title{font-size:25px;font-weight:700}.sub{font-size:14px;fill:#57606a}.group{font-size:19px;font-weight:650}.label{font-size:14px}.value{font-size:13px;font-weight:650;fill:#24292f}.track{fill:#eaeef2}@media(prefers-color-scheme:dark){text,.value{fill:#f0f6fc}.sub{fill:#8c959f}.track{fill:#30363d}}</style>
<text id="chart-title" class="title" x="24" y="36">Carve engines on the full spec corpus</text>
<text class="sub" x="24" y="62">Each document-size panel is normalized visually to its fastest engine; labels show absolute MB/s.</text>
<text class="group" x="24" y="105">small (1.2 KB)</text>
<text class="label" x="233" y="146" text-anchor="end">carve-js</text>
<rect class="track" x="245" y="133" width="650" height="20" rx="4"/>
<rect x="245" y="133" width="77.0" height="20" rx="4" fill="#a08ceb"/>
<text class="value" x="329.9736842105263" y="148">0.90 MB/s</text>
<text class="label" x="233" y="180" text-anchor="end">carve-php</text>
<rect class="track" x="245" y="167" width="650" height="20" rx="4"/>
<rect x="245" y="167" width="47.9" height="20" rx="4" fill="#7357d9"/>
<text class="value" x="300.89473684210526" y="182">0.56 MB/s</text>
<text class="label" x="233" y="214" text-anchor="end">carve-rs</text>
<rect class="track" x="245" y="201" width="650" height="20" rx="4"/>
<rect x="245" y="201" width="650.0" height="20" rx="4" fill="#4c31a8"/>
<text class="value" x="825" y="216">7.60 MB/s</text>
<text class="group" x="24" y="286">medium (63.6 KB)</text>
<text class="label" x="233" y="327" text-anchor="end">carve-js</text>
<rect class="track" x="245" y="314" width="650" height="20" rx="4"/>
<rect x="245" y="314" width="197.1" height="20" rx="4" fill="#a08ceb"/>
<text class="value" x="450.0967741935484" y="329">0.47 MB/s</text>
<text class="label" x="233" y="361" text-anchor="end">carve-php</text>
<rect class="track" x="245" y="348" width="650" height="20" rx="4"/>
<rect x="245" y="348" width="121.6" height="20" rx="4" fill="#7357d9"/>
<text class="value" x="374.61290322580646" y="363">0.29 MB/s</text>
<text class="label" x="233" y="395" text-anchor="end">carve-rs</text>
<rect class="track" x="245" y="382" width="650" height="20" rx="4"/>
<rect x="245" y="382" width="650.0" height="20" rx="4" fill="#4c31a8"/>
<text class="value" x="825" y="397">1.55 MB/s</text>
<text class="group" x="24" y="467">large (508.6 KB)</text>
<text class="label" x="233" y="508" text-anchor="end">carve-js</text>
<rect class="track" x="245" y="495" width="650" height="20" rx="4"/>
<rect x="245" y="495" width="179.3" height="20" rx="4" fill="#a08ceb"/>
<text class="value" x="432.3103448275863" y="510">0.32 MB/s</text>
<text class="label" x="233" y="542" text-anchor="end">carve-php</text>
<rect class="track" x="245" y="529" width="650" height="20" rx="4"/>
<rect x="245" y="529" width="117.7" height="20" rx="4" fill="#7357d9"/>
<text class="value" x="370.67241379310343" y="544">0.21 MB/s</text>
<text class="label" x="233" y="576" text-anchor="end">carve-rs</text>
<rect class="track" x="245" y="563" width="650" height="20" rx="4"/>
<rect x="245" y="563" width="650.0" height="20" rx="4" fill="#4c31a8"/>
<text class="value" x="825" y="578">1.16 MB/s</text>
</svg>
