<svg xmlns="http://www.w3.org/2000/svg" width="1000" height="681" viewBox="0 0 1000 681" role="img" aria-labelledby="title desc">
<title id="title">Carve engines on the full spec corpus</title>
<desc id="desc">Each document-size panel is normalized visually to its fastest engine; labels show absolute MB/s.</desc>
<style>text{font-family:ui-sans-serif,system-ui,sans-serif;fill:#24292f}.title{font-size:25px;font-weight:700}.sub{font-size:14px;fill:#57606a}.group{font-size:19px;font-weight:650}.label{font-size:14px}.value{font-size:13px;font-weight:650;fill:#24292f}.track{fill:#eaeef2}@media(prefers-color-scheme:dark){text,.value{fill:#f0f6fc}.sub{fill:#8c959f}.track{fill:#30363d}}</style>
<text id="chart-title" class="title" x="24" y="36">Carve engines on the full spec corpus</text>
<text class="sub" x="24" y="62">Each document-size panel is normalized visually to its fastest engine; labels show absolute MB/s.</text>
<text class="group" x="24" y="105">small (1.2 KB)</text>
<text class="label" x="233" y="146" text-anchor="end">carve-js</text>
<rect class="track" x="245" y="133" width="650" height="20" rx="4"/>
<rect x="245" y="133" width="85.2" height="20" rx="4" fill="#a08ceb"/>
<text class="value" x="338.2352352352352" y="148">1.31 MB/s</text>
<text class="label" x="233" y="180" text-anchor="end">carve-php</text>
<rect class="track" x="245" y="167" width="650" height="20" rx="4"/>
<rect x="245" y="167" width="51.4" height="20" rx="4" fill="#7357d9"/>
<text class="value" x="304.4014014014014" y="182">0.79 MB/s</text>
<text class="label" x="233" y="214" text-anchor="end">carve-rs</text>
<rect class="track" x="245" y="201" width="650" height="20" rx="4"/>
<rect x="245" y="201" width="650.0" height="20" rx="4" fill="#4c31a8"/>
<text class="value" x="825" y="216">9.99 MB/s</text>
<text class="group" x="24" y="286">medium (63.6 KB)</text>
<text class="label" x="233" y="327" text-anchor="end">carve-js</text>
<rect class="track" x="245" y="314" width="650" height="20" rx="4"/>
<rect x="245" y="314" width="183.6" height="20" rx="4" fill="#a08ceb"/>
<text class="value" x="436.5648148148148" y="329">0.61 MB/s</text>
<text class="label" x="233" y="361" text-anchor="end">carve-php</text>
<rect class="track" x="245" y="348" width="650" height="20" rx="4"/>
<rect x="245" y="348" width="108.3" height="20" rx="4" fill="#7357d9"/>
<text class="value" x="361.3333333333333" y="363">0.36 MB/s</text>
<text class="label" x="233" y="395" text-anchor="end">carve-rs</text>
<rect class="track" x="245" y="382" width="650" height="20" rx="4"/>
<rect x="245" y="382" width="650.0" height="20" rx="4" fill="#4c31a8"/>
<text class="value" x="825" y="397">2.16 MB/s</text>
<text class="group" x="24" y="467">large (508.6 KB)</text>
<text class="label" x="233" y="508" text-anchor="end">carve-js</text>
<rect class="track" x="245" y="495" width="650" height="20" rx="4"/>
<rect x="245" y="495" width="187.0" height="20" rx="4" fill="#a08ceb"/>
<text class="value" x="439.986301369863" y="510">0.42 MB/s</text>
<text class="label" x="233" y="542" text-anchor="end">carve-php</text>
<rect class="track" x="245" y="529" width="650" height="20" rx="4"/>
<rect x="245" y="529" width="84.6" height="20" rx="4" fill="#7357d9"/>
<text class="value" x="337.5890410958904" y="544">0.19 MB/s</text>
<text class="label" x="233" y="576" text-anchor="end">carve-rs</text>
<rect class="track" x="245" y="563" width="650" height="20" rx="4"/>
<rect x="245" y="563" width="650.0" height="20" rx="4" fill="#4c31a8"/>
<text class="value" x="825" y="578">1.46 MB/s</text>
</svg>
